<?xml version="1.0" standalone="no"?>
<!DOCTYPE svg PUBLIC "-//W3C//DTD SVG 20010904//EN"
 "http://www.w3.org/TR/2001/REC-SVG-20010904/DTD/svg10.dtd">
<svg version="1.0" xmlns="http://www.w3.org/2000/svg"
 width="467.000000pt" height="176.000000pt" viewBox="0 0 467.000000 176.000000"
 preserveAspectRatio="xMidYMid meet">

<g transform="translate(0.000000,176.000000) scale(0.100000,-0.100000)"
fill="#000000" stroke="none">
<path d="M1279 1723 c-1 -5 -1 -12 0 -17 1 -5 -5 -6 -14 -2 -10 4 -14 2 -9 -5
4 -7 1 -10 -7 -7 -20 7 -51 -11 -43 -24 5 -8 1 -9 -10 -5 -11 5 -15 3 -10 -4
4 -7 1 -10 -7 -7 -20 7 -51 -11 -43 -24 5 -8 1 -9 -10 -5 -11 5 -15 3 -10 -4
4 -7 1 -10 -7 -7 -20 7 -51 -11 -43 -24 5 -7 2 -9 -9 -5 -10 4 -16 2 -14 -5 1
-6 -4 -13 -12 -16 -9 -3 -11 0 -6 8 6 9 3 9 -14 0 -12 -6 -19 -16 -15 -22 4
-6 1 -9 -7 -6 -20 7 -51 -11 -43 -24 5 -8 1 -9 -10 -5 -11 5 -15 3 -10 -4 4
-7 1 -10 -7 -7 -20 7 -51 -11 -43 -24 5 -7 2 -9 -7 -6 -20 8 -62 -16 -65 -36
-1 -9 -1 -16 1 -16 2 0 108 61 236 135 128 74 239 135 246 135 7 0 13 5 13 10
0 6 -5 10 -11 10 -5 0 -7 5 -4 10 3 6 4 10 1 10 -3 0 -7 -3 -7 -7z m-44 -43
c-3 -5 -12 -10 -18 -10 -7 0 -6 4 3 10 19 12 23 12 15 0z m-70 -40 c-3 -5 -12
-10 -18 -10 -7 0 -6 4 3 10 19 12 23 12 15 0z m-70 -40 c-3 -5 -12 -10 -18
-10 -7 0 -6 4 3 10 19 12 23 12 15 0z m-120 -70 c-3 -5 -12 -10 -18 -10 -7 0
-6 4 3 10 19 12 23 12 15 0z m-70 -40 c-3 -5 -12 -10 -18 -10 -7 0 -6 4 3 10
19 12 23 12 15 0z m-59 -35 c-11 -8 -25 -15 -30 -15 -6 1 0 7 14 15 32 19 40
18 16 0z"/>
<path d="M783 1522 l-252 -146 2 -440 2 -441 94 -54 c79 -46 96 -53 112 -43
17 11 19 9 19 -10 0 -17 13 -30 51 -51 27 -16 57 -26 65 -23 12 5 14 73 14
463 l0 458 208 119 c114 66 215 119 225 118 9 0 15 3 12 8 -3 4 11 17 30 29
34 20 35 22 35 82 0 54 -2 60 -17 54 -10 -3 -127 -69 -259 -146 -133 -76 -250
-139 -260 -139 -11 0 -34 9 -52 20 -18 11 -37 20 -42 20 -6 0 -10 -33 -10 -75
0 -74 0 -75 -25 -75 -33 0 -182 85 -182 104 0 8 61 49 136 92 75 43 150 86
168 97 28 16 31 16 29 1 -3 -20 -44 -44 -65 -37 -12 4 -13 2 -3 -4 9 -7 2 -14
-24 -27 -20 -9 -34 -19 -31 -23 3 -3 74 34 157 82 82 49 148 90 146 92 -2 3
-13 0 -23 -5 -10 -5 -25 -7 -33 -5 -13 4 -13 3 0 -7 12 -9 10 -10 -10 -5 -17
4 -21 3 -11 -3 11 -8 9 -12 -10 -18 -13 -4 -31 -7 -39 -6 -11 2 -12 1 -2 -6 9
-6 6 -11 -12 -20 -20 -9 -24 -8 -22 5 1 8 40 37 87 64 46 27 75 48 64 48 -11
0 -133 -66 -272 -147z"/>
<path d="M1034 1634 c-18 -14 -18 -14 6 -3 31 14 36 19 24 19 -6 0 -19 -7 -30
-16z"/>
<path d="M955 1590 c-3 -6 1 -7 9 -4 18 7 21 14 7 14 -6 0 -13 -4 -16 -10z"/>
<path d="M1487 1535 c-60 -37 -72 -41 -62 -26 3 5 0 13 -6 17 -8 5 -9 3 -5 -5
5 -8 3 -11 -7 -9 -9 2 -17 -1 -19 -6 -6 -18 47 -14 79 6 25 15 36 17 50 8 16
-10 16 -10 -2 -6 -20 6 -84 -28 -68 -36 4 -3 2 -3 -5 -1 -20 5 -57 -23 -40
-31 7 -3 4 -4 -7 -1 -21 5 -84 -29 -68 -37 4 -3 2 -3 -5 -1 -7 1 -23 -2 -34
-8 -17 -9 -18 -13 -7 -21 10 -6 7 -7 -11 -3 -18 4 -21 4 -11 -3 11 -8 8 -10
-12 -9 -14 1 -23 6 -19 11 3 5 -3 6 -13 3 -9 -4 -25 -2 -33 5 -13 11 -14 11
-7 -1 6 -11 4 -13 -7 -8 -21 7 -56 -17 -39 -27 12 -8 6 -26 -10 -26 -6 0 -8 4
-4 9 3 5 0 13 -6 17 -8 5 -9 3 -4 -6 6 -10 4 -12 -7 -7 -21 8 -30 -3 -17 -20
14 -17 -2 -17 -21 0 -12 10 -12 9 -2 -4 12 -16 7 -29 -10 -29 -5 0 -7 4 -3 9
3 5 0 13 -6 17 -8 5 -9 3 -5 -5 6 -8 2 -11 -10 -9 -12 2 -18 -2 -16 -11 2 -9
-3 -11 -13 -7 -11 4 -14 2 -9 -6 5 -8 2 -9 -9 -5 -10 4 -16 2 -14 -5 1 -6 -4
-13 -12 -16 -9 -3 -11 0 -6 8 6 9 4 11 -4 5 -8 -5 -9 -11 -3 -17 6 -6 24 -1
51 16 22 14 42 26 43 26 2 0 2 -240 0 -534 l-3 -534 59 -36 c100 -61 92 -98
92 408 l0 443 260 149 260 149 0 77 c0 42 -5 80 -10 83 -10 6 -182 -86 -175
-93 2 -2 39 17 83 42 43 25 83 46 88 46 17 0 -429 -252 -450 -254 -12 -2 -31
-8 -44 -15 -13 -7 -33 -9 -45 -6 -20 5 -21 5 -3 -6 15 -9 26 -8 52 5 43 20 45
12 3 -10 -25 -12 -37 -14 -56 -5 -13 6 -21 15 -18 21 6 10 -53 45 -63 36 -3
-3 -1 -6 4 -6 6 0 19 -7 30 -15 15 -12 11 -12 -19 2 -21 9 -32 20 -26 23 6 4
10 11 9 16 -1 5 4 10 11 13 7 2 9 -1 5 -8 -5 -7 -1 -9 10 -4 13 5 15 3 9 -8
-4 -8 -4 -11 0 -6 5 4 19 -3 32 -15 13 -12 23 -16 23 -9 0 7 5 9 10 6 6 -4 7
-11 4 -17 -4 -6 3 -5 16 2 21 11 21 12 4 31 -10 11 -12 19 -6 19 7 0 15 0 20
0 4 0 8 -4 8 -10 1 -5 2 -12 3 -15 0 -3 10 -1 22 6 21 11 21 11 -6 39 -22 23
-24 28 -10 34 9 3 13 11 9 17 -4 7 -1 10 7 7 19 -7 71 20 64 32 -10 16 7 11
29 -7 17 -15 18 -15 8 -2 -10 14 -10 18 3 23 9 3 13 10 10 16 -9 14 8 13 23
-2 9 -9 7 -15 -6 -25 -15 -12 -14 -13 6 -3 23 11 23 12 6 31 -21 24 -8 25 20
2 20 -17 20 -17 7 0 -9 11 -10 17 -2 17 18 0 26 -4 23 -13 -1 -4 7 -3 19 3 16
9 18 14 8 26 -21 26 7 15 32 -13 18 -19 19 -25 7 -20 -10 3 -20 2 -22 -2 -10
-15 6 -21 26 -10 19 10 19 11 -3 35 -25 27 -34 57 -16 51 7 -2 13 -9 13 -15 3
-22 4 -23 23 -13 20 11 48 -8 33 -24 -4 -4 4 -2 16 5 l24 12 -23 24 -23 24 25
-3 c13 -2 24 -10 24 -18 1 -15 24 -14 40 3 7 7 6 9 -2 4 -16 -9 -78 45 -62 54
11 8 5 30 -9 30 -4 -1 -33 -16 -65 -35z m60 14 c-16 -10 -16 -12 5 -30 13 -11
17 -18 11 -14 -27 13 -34 -7 -12 -31 12 -13 18 -24 12 -24 -6 0 -16 7 -23 15
-9 11 -17 12 -34 3 -11 -6 -18 -7 -14 -3 4 5 3 14 -3 22 -12 13 -3 18 28 14
19 -2 26 19 8 25 -14 6 -14 8 2 20 10 7 23 13 28 13 6 0 2 -4 -8 -10z m-110
-86 c-4 -3 -2 -12 4 -20 7 -8 8 -13 1 -13 -5 0 -15 6 -21 14 -9 11 -9 15 1 19
19 8 22 8 15 0z m-254 -107 c-4 -5 1 -7 11 -3 10 4 15 3 11 -3 -3 -6 0 -10 7
-10 9 0 9 -3 -2 -10 -8 -5 -22 -7 -32 -4 -9 2 -19 0 -23 -6 -6 -9 6 -14 31
-11 6 1 20 -10 33 -23 20 -22 21 -24 4 -30 -9 -4 -14 -4 -10 0 4 4 2 13 -4 20
-9 11 -16 11 -39 -1 -16 -8 -31 -11 -34 -6 -3 5 1 12 10 15 17 6 10 26 -9 26
-7 0 -6 -4 3 -11 12 -9 12 -10 -3 -5 -10 3 -28 1 -40 -5 -19 -9 -20 -9 -5 3
15 13 15 15 0 26 -14 10 -13 11 6 2 16 -8 28 -7 44 1 20 11 20 12 3 21 -11 7
-13 13 -7 17 17 10 51 8 45 -3z m-56 -73 c-10 -10 13 -32 27 -27 7 3 19 -2 26
-11 8 -9 8 -15 2 -15 -6 0 -14 5 -17 10 -4 6 -10 8 -14 6 -4 -3 -18 2 -30 11
-18 12 -20 17 -10 24 17 10 25 12 16 2z"/>
<path d="M1164 1346 c11 -9 24 -16 30 -16 12 0 7 5 -24 19 -24 11 -24 11 -6
-3z"/>
<path d="M3042 1530 c-56 -34 -62 -63 -62 -308 0 -211 1 -220 23 -253 30 -45
60 -59 129 -59 50 0 62 4 92 31 49 43 59 99 54 323 -4 201 -10 225 -67 263
-45 30 -122 31 -169 3z m126 -100 c19 -38 13 -407 -8 -420 -23 -15 -56 -12
-71 7 -21 24 -20 403 0 427 20 24 63 17 79 -14z"/>
<path d="M3404 1535 c-16 -9 -39 -30 -50 -48 -17 -29 -19 -52 -19 -257 0 -196
2 -229 18 -257 23 -44 64 -63 132 -63 49 0 59 4 93 34 36 34 37 36 41 120 l3
86 -46 0 -46 0 0 -63 c0 -36 -5 -68 -12 -75 -19 -19 -66 -15 -78 7 -6 12 -10
99 -10 215 0 164 3 197 16 210 41 41 84 2 84 -76 l0 -38 45 0 c35 0 45 4 45
16 0 12 6 15 25 10 22 -6 25 -3 25 19 0 21 5 25 30 25 18 0 30 -5 30 -13 0 -8
-16 -109 -35 -226 -19 -116 -35 -218 -35 -226 0 -11 12 -15 44 -15 l44 0 8 58
9 57 56 3 56 3 7 -61 7 -60 49 0 c34 0 50 4 50 13 0 6 -15 102 -34 212 -18
110 -32 202 -30 204 2 2 11 1 20 -3 11 -4 15 -15 12 -35 -4 -26 -2 -29 14 -20
43 23 31 87 -22 114 -35 18 -50 43 -50 82 0 48 -11 54 -81 51 l-64 -3 -3 -32
c-3 -27 -8 -33 -27 -33 -41 0 -55 11 -55 41 l0 28 -35 -21 -36 -21 -25 24
c-31 30 -124 37 -170 14z m426 -167 c0 -7 7 -58 15 -113 8 -55 15 -106 15
-112 0 -9 -15 -13 -41 -13 l-42 0 6 38 c3 20 11 76 18 125 7 48 16 87 21 87 4
0 8 -6 8 -12z"/>
<path d="M844 1524 c-18 -14 -18 -14 6 -3 31 14 36 19 24 19 -6 0 -19 -7 -30
-16z"/>
<path d="M2090 830 c0 -624 2 -710 15 -710 13 0 15 86 15 710 0 624 -2 710
-15 710 -13 0 -15 -86 -15 -710z"/>
<path d="M2270 1495 l0 -45 55 0 55 0 0 -160 c0 -146 -2 -160 -17 -160 -36 1
-56 27 -49 61 6 32 6 32 -15 13 -53 -47 -43 -88 33 -134 l48 -30 0 -60 0 -60
45 0 45 0 0 43 c0 24 2 46 5 49 3 3 29 1 58 -4 99 -16 97 -15 97 -53 0 -35 0
-35 45 -35 41 0 45 2 45 24 0 18 11 31 46 50 26 14 48 26 50 26 2 0 4 -22 4
-50 l0 -50 51 0 51 0 -4 123 c-4 122 -22 187 -50 187 -6 0 -1 11 11 24 42 45
50 177 14 234 -23 37 -73 52 -172 52 l-91 0 -2 -227 -3 -228 -35 2 c-19 1 -54
4 -77 8 l-43 6 0 175 0 174 55 0 55 0 0 45 0 45 -155 0 -155 0 0 -45z m531
-62 c8 -9 14 -39 14 -68 0 -63 -16 -85 -61 -85 l-34 0 0 85 0 85 34 0 c19 0
39 -7 47 -17z m3 -263 c11 -11 22 -120 12 -120 -4 0 -27 12 -52 26 -40 23 -44
30 -44 63 0 21 3 41 7 45 9 9 64 -1 77 -14z"/>
<path d="M687 1436 c-110 -65 -136 -83 -103 -70 15 6 17 4 11 -6 -6 -10 -4
-12 9 -7 9 4 14 3 11 -2 -3 -5 4 -12 15 -16 11 -3 20 -11 20 -16 0 -14 -12
-11 -45 11 -16 11 -34 20 -40 20 -5 0 24 -20 65 -45 73 -43 120 -56 120 -34 0
6 -9 8 -20 4 -30 -9 -45 4 -23 21 10 7 13 14 8 14 -6 0 -16 -5 -23 -12 -6 -6
-14 -9 -18 -6 -3 4 8 14 26 23 18 9 30 19 27 22 -3 2 -15 -1 -27 -7 -17 -9
-21 -9 -15 0 5 8 2 10 -11 6 -11 -3 -24 -2 -31 2 -8 5 6 18 39 36 28 16 48 24
44 17 -4 -6 -1 -11 6 -11 7 -1 0 -8 -15 -16 -16 -9 -27 -18 -24 -21 3 -2 15 1
27 7 15 8 20 8 16 1 -4 -6 -2 -11 4 -11 7 0 10 13 7 35 -3 19 -1 38 4 41 5 3
28 -6 52 -20 24 -15 48 -26 53 -26 5 0 -10 12 -34 26 -23 14 -40 29 -37 34 3
4 -5 6 -17 2 -16 -4 -19 -2 -13 8 6 10 4 12 -8 7 -48 -20 -46 -16 8 17 33 19
56 35 50 35 -5 0 -59 -28 -118 -63z m9 -21 c-1 -8 -6 -18 -11 -22 -4 -4 -5 -2
-1 5 9 15 1 15 -25 1 -11 -5 -17 -14 -14 -19 3 -5 0 -12 -6 -16 -8 -5 -9 -3
-4 6 6 9 1 10 -16 5 -13 -3 -1 7 26 24 28 17 51 31 52 31 1 0 0 -7 -1 -15z
m-26 -105 c0 -5 -5 -10 -11 -10 -5 0 -7 5 -4 10 3 6 8 10 11 10 2 0 4 -4 4
-10z"/>
<path d="M1365 1491 c6 -11 4 -13 -8 -8 -11 4 -15 1 -12 -13 2 -10 -3 -21 -11
-24 -8 -3 -12 -2 -9 3 3 5 0 13 -6 17 -8 5 -9 3 -4 -6 6 -10 4 -12 -9 -7 -11
5 -15 3 -10 -5 5 -7 2 -9 -8 -5 -21 8 -30 -3 -17 -20 14 -17 -2 -17 -20 0 -11
10 -12 9 -6 -2 6 -11 4 -13 -7 -8 -9 3 -24 -1 -35 -8 -10 -8 -16 -15 -13 -16
38 -8 66 0 143 44 80 45 111 68 71 53 -9 -4 -24 -1 -32 6 -13 11 -14 11 -7 -1z
m10 -21 c-3 -5 -12 -10 -18 -10 -7 0 -6 4 3 10 19 12 23 12 15 0z m-75 -44
c-7 -7 -13 -7 -20 0 -6 6 -3 10 10 10 13 0 16 -4 10 -10z m-50 -30 c-7 -7 -13
-7 -20 0 -6 6 -3 10 10 10 13 0 16 -4 10 -10z"/>
<path d="M1515 1441 c-3 -5 -2 -12 3 -15 5 -3 9 1 9 9 0 17 -3 19 -12 6z"/>
<path d="M1425 1380 c6 -10 4 -12 -8 -7 -9 3 -19 2 -22 -3 -9 -15 11 -20 30
-6 14 10 15 15 5 21 -9 6 -11 4 -5 -5z"/>
<path d="M1373 1316 c-67 -39 -126 -76 -130 -81 -4 -5 8 0 27 11 19 11 81 46
138 78 94 53 115 68 95 65 -5 -1 -63 -33 -130 -73z"/>
<path d="M675 1360 c-16 -11 -25 -20 -20 -20 6 0 24 9 40 20 17 11 26 20 20
20 -5 0 -23 -9 -40 -20z"/>
<path d="M1294 1344 c-18 -14 -18 -15 4 -4 12 6 22 13 22 15 0 8 -5 6 -26 -11z"/>
<path d="M1376 1348 c5 -8 2 -9 -10 -5 -10 4 -15 3 -11 -3 6 -9 -8 -14 -28
-11 -5 1 -6 -3 -2 -9 4 -6 17 -5 36 5 16 9 27 20 24 25 -4 6 -8 10 -11 10 -3
0 -2 -5 2 -12z"/>
<path d="M725 1320 c-3 -5 -1 -10 6 -10 7 0 4 -7 -7 -15 -10 -8 -14 -14 -9
-15 18 0 32 15 32 33 0 19 -12 23 -22 7z"/>
<path d="M1246 1317 c-16 -12 -16 -14 6 -32 l23 -20 -18 21 c-15 18 -16 22 -3
27 17 7 40 -16 28 -28 -4 -4 3 -2 16 4 19 10 23 31 6 31 -3 0 -2 -4 1 -10 9
-15 -6 -12 -25 5 -13 12 -19 13 -34 2z"/>
<path d="M1686 1301 c8 -8 -36 -32 -48 -25 -7 5 -8 3 -3 -6 6 -10 4 -12 -9 -7
-11 4 -15 3 -11 -4 4 -6 -1 -9 -11 -7 -12 2 -18 -2 -16 -11 2 -9 -3 -11 -13
-7 -11 4 -14 2 -9 -6 5 -8 2 -9 -10 -5 -10 4 -15 3 -11 -3 6 -9 -8 -14 -28
-11 -5 1 -5 -4 -1 -10 5 -9 2 -10 -10 -6 -11 5 -15 3 -10 -5 5 -8 2 -9 -10 -5
-10 4 -19 1 -22 -8 -4 -8 -11 -12 -17 -8 -6 4 -7 1 -2 -7 6 -10 4 -12 -9 -7
-11 5 -15 3 -10 -5 5 -8 2 -9 -10 -5 -10 4 -19 1 -22 -8 -4 -8 -11 -12 -17 -8
-6 4 -7 1 -2 -7 6 -10 4 -12 -9 -7 -11 4 -15 3 -11 -4 4 -6 -1 -9 -11 -7 -12
2 -18 -2 -16 -11 2 -9 -3 -11 -13 -7 -11 4 -14 2 -9 -6 5 -8 2 -9 -10 -5 -11
4 -15 3 -11 -4 4 -6 -1 -9 -11 -7 -12 2 -18 -2 -16 -11 2 -9 -3 -11 -13 -7
-11 4 -14 2 -9 -6 5 -7 2 -9 -8 -5 -9 3 -21 0 -27 -6 -8 -8 3 -18 40 -40 28
-15 53 -27 55 -25 2 2 -17 15 -41 28 -25 14 -45 28 -45 33 0 4 5 5 10 2 7 -5
477 255 508 280 2 2 -8 2 -22 1 -13 0 -22 -3 -20 -5z"/>
<path d="M1786 1241 c8 -8 -36 -32 -48 -25 -6 4 -8 3 -4 -4 6 -10 -30 -28 -47
-24 -5 1 -5 -3 -1 -9 5 -9 2 -10 -10 -6 -9 4 -14 3 -11 -2 5 -9 -32 -27 -48
-23 -5 1 -6 -2 -3 -7 6 -9 -31 -27 -47 -23 -5 1 -5 -3 -1 -9 5 -9 2 -10 -12
-5 -10 4 -15 4 -11 0 10 -10 -52 -46 -65 -38 -6 4 -8 3 -5 -3 8 -13 -50 -46
-66 -37 -6 4 -9 4 -5 -1 11 -11 -29 -38 -44 -29 -6 4 -8 3 -5 -3 3 -5 -9 -17
-28 -27 -33 -18 -33 -18 -77 8 -25 14 -48 26 -51 26 -4 0 -7 -198 -7 -440 l0
-440 41 -25 c61 -39 61 -39 127 0 l61 36 41 -26 c22 -14 44 -25 50 -25 5 0
100 52 210 116 l200 116 0 399 c0 219 -2 399 -4 399 -2 0 -82 -45 -177 -101
-96 -56 -186 -107 -201 -115 -27 -14 -62 -9 -52 7 3 5 2 8 -3 7 -16 -4 -53 13
-53 25 0 7 90 64 200 127 l200 114 0 37 c0 33 -3 37 -24 35 -13 0 -22 -3 -20
-5z"/>
<path d="M906 1231 c-3 -4 14 -18 37 -30 23 -12 33 -16 23 -9 -11 7 -27 21
-37 30 -10 10 -21 14 -23 9z"/>
<path d="M900 747 l0 -464 49 -26 c27 -15 54 -27 60 -27 8 0 11 130 11 465 0
414 -2 465 -16 465 -9 0 -12 5 -8 12 4 7 3 8 -5 4 -6 -4 -28 2 -47 13 -19 12
-37 21 -40 21 -2 0 -4 -209 -4 -463z"/>
<path d="M1825 1150 c-3 -5 -1 -10 4 -10 6 0 11 5 11 10 0 6 -2 10 -4 10 -3 0
-8 -4 -11 -10z"/>
<path d="M1778 1124 c-38 -20 -36 -28 2 -9 17 9 30 18 30 20 0 7 -1 6 -32 -11z"/>
<path d="M1714 1084 c-18 -14 -18 -15 4 -4 12 6 22 13 22 15 0 8 -5 6 -26 -11z"/>
<path d="M1658 1054 c-38 -20 -36 -28 2 -9 17 9 30 18 30 20 0 7 -1 6 -32 -11z"/>
<path d="M1588 1014 c-38 -20 -36 -28 2 -9 17 9 30 18 30 20 0 7 -1 6 -32 -11z"/>
<path d="M1524 974 c-18 -14 -18 -15 4 -4 12 6 22 13 22 15 0 8 -5 6 -26 -11z"/>
<path d="M2340 520 l0 -310 101 0 c170 0 204 32 197 192 -3 85 -4 91 -33 116
-19 16 -25 27 -17 30 24 8 42 61 42 127 0 125 -38 155 -195 155 l-95 0 0 -310z
m181 204 c7 -9 13 -37 13 -64 0 -59 -16 -80 -60 -80 l-34 0 0 80 0 80 34 0
c18 0 39 -7 47 -16z m-3 -243 c18 -11 34 -88 26 -125 -9 -45 -22 -56 -65 -56
l-39 0 0 95 0 95 33 0 c17 0 38 -4 45 -9z"/>
<path d="M3670 520 l0 -310 50 0 50 0 0 100 c0 72 4 110 16 131 8 17 18 28 22
24 4 -3 23 -61 43 -128 l36 -122 53 -3 c47 -3 52 -1 48 15 -3 10 -29 98 -59
196 l-53 178 57 115 57 114 -48 0 -48 0 -60 -122 -59 -123 -3 123 -3 122 -49
0 -50 0 0 -310z"/>
<path d="M2855 721 c-54 -13 -95 -41 -125 -84 -16 -23 -39 -51 -50 -62 -24
-24 -25 -38 -5 -55 8 -6 21 -35 29 -64 25 -86 101 -140 197 -139 99 1 171 60
198 164 25 94 71 108 90 27 29 -120 104 -190 203 -192 99 -1 187 66 204 154 4
19 13 39 21 43 18 11 17 56 -2 63 -8 3 -26 26 -40 50 -75 128 -275 130 -347 4
-23 -39 -24 -40 -80 -40 -49 0 -59 3 -69 23 -24 46 -74 88 -123 102 -54 16
-57 16 -101 6z m115 -53 c63 -32 90 -77 90 -148 0 -71 -27 -116 -90 -147 -56
-29 -94 -29 -150 0 -56 28 -90 83 -90 147 0 89 79 170 165 170 17 0 51 -10 75
-22z m511 -4 c63 -32 98 -114 78 -186 -32 -122 -186 -163 -275 -74 -135 135
27 349 197 260z"/>
</g>
</svg>
