<?xml version="1.0" encoding="utf-8"?>
<!-- Generator: Adobe Illustrator 26.0.3, SVG Export Plug-In . SVG Version: 6.00 Build 0)  -->
<svg version="1.1" id="Camada_1" xmlns="http://www.w3.org/2000/svg" xmlns:xlink="http://www.w3.org/1999/xlink" x="0px" y="0px"
	 viewBox="0 0 506.3 155.4" style="enable-background:new 0 0 506.3 155.4;" xml:space="preserve">
<style type="text/css">
	.st0{fill:#EDEDED;}
	.st1{fill:url(#SVGID_1_);}
	.st2{fill:url(#SVGID_00000085231843910387452200000008345915614797996189_);}
	.st3{fill:url(#XMLID_00000021092883474090044960000014843409343270147244_);}
	.st4{fill:#848484;}
	.st5{font-family:'GothamSSm-Medium';}
	.st6{font-size:28.473px;}
	.st7{fill:none;stroke:#848484;stroke-width:1.5;stroke-linecap:round;stroke-linejoin:round;stroke-miterlimit:10;}
	.st8{fill:url(#SVGID_00000148633937350097252590000008078717166242420112_);}
	.st9{fill:url(#SVGID_00000147916637075381521830000013981500762995844508_);}
	.st10{fill:url(#SVGID_00000150808059328922471900000003713668180144192936_);}
	.st11{font-size:17.8244px;}
	.st12{fill:none;stroke:#848484;stroke-linecap:round;stroke-linejoin:round;stroke-miterlimit:10;}
	.st13{fill:#5B87DA;}
</style>
<g>
	<circle class="st0" cx="63.2" cy="69.9" r="36.3"/>
</g>
<g id="XMLID_35_">
	<g id="XMLID_47_">
		
			<image style="overflow:visible;opacity:0.3;enable-background:new    ;" width="82" height="104" xlink:href="CB2A297945841010.png"  transform="matrix(0.9894 0 0 0.9894 18.7935 32.1673)">
		</image>
		<g>
			
				<linearGradient id="SVGID_1_" gradientUnits="userSpaceOnUse" x1="76.2133" y1="-1658.3684" x2="26.2152" y2="-1714.3496" gradientTransform="matrix(1 2.500000e-03 2.500000e-03 -1 21.859 -1609.4281)">
				<stop  offset="0" style="stop-color:#376AC5"/>
				<stop  offset="0.4409" style="stop-color:#6C95E7"/>
				<stop  offset="1" style="stop-color:#4479CC"/>
			</linearGradient>
			<path class="st1" d="M79,38c0,0,16.4,9.3,5.1,30.9C73,90.4,57.4,121.7,57.4,121.7L26.1,92.9C26.1,92.8,75.5,54.5,79,38z"/>
		</g>
	</g>
	<g id="XMLID_46_">
		
			<image style="overflow:visible;opacity:0.5;enable-background:new    ;" width="112" height="121" xlink:href="CB2A297945841013.png"  transform="matrix(0.9914 0 0 0.9914 31.8388 31.1344)">
		</image>
		<g>
			
				<linearGradient id="SVGID_00000088108907799149910930000003696264376433010619_" gradientUnits="userSpaceOnUse" x1="36.9819" y1="-1637.8555" x2="103.78" y2="-1753.8245" gradientTransform="matrix(1 2.500000e-03 2.500000e-03 -1 21.859 -1609.4281)">
				<stop  offset="0" style="stop-color:#376AC5"/>
				<stop  offset="0.4409" style="stop-color:#6C95E7"/>
				<stop  offset="1" style="stop-color:#4479CC"/>
			</linearGradient>
			<path style="fill:url(#SVGID_00000088108907799149910930000003696264376433010619_);" d="M48,37.8c0,0-16.4,9.2-5.4,30.9
				c11.2,21.7,49.5,70,49.5,70l38.3-39.8C130.4,98.9,51.5,54.5,48,37.8z"/>
		</g>
	</g>
	
		<linearGradient id="XMLID_00000157299921768810476070000008993715842908951213_" gradientUnits="userSpaceOnUse" x1="20.8989" y1="-1646.5002" x2="70.5449" y2="-1646.5002" gradientTransform="matrix(1 2.500000e-03 2.500000e-03 -1 21.859 -1609.4281)">
		<stop  offset="0" style="stop-color:#4479CC"/>
		<stop  offset="0.4409" style="stop-color:#66A8F0"/>
		<stop  offset="1" style="stop-color:#386EC0"/>
	</linearGradient>
	<path id="XMLID_38_" style="fill:url(#XMLID_00000157299921768810476070000008993715842908951213_);" d="M63.5,20.1
		c-1.2,0-28.1-0.8-24.6,34.1c0,0,4.9-19.4,24.6-19.4s24.4,19.4,24.4,19.4C91.5,19.5,64.7,20.1,63.5,20.1z"/>
</g>
<text transform="matrix(0.9886 0 0 1 126.2931 74.3858)" class="st4 st5 st6">BIOPSIA DE PRÓSTATA</text>
<text transform="matrix(0.9886 0 0 1 126.2931 74.3858)" class="st7 st5 st6">BIOPSIA DE PRÓSTATA</text>
<g>
	
		<linearGradient id="SVGID_00000051349874022595034000000010769991750874064275_" gradientUnits="userSpaceOnUse" x1="42.7116" y1="1030.3663" x2="113.4958" y2="1030.3663" gradientTransform="matrix(1 0 0 1 0 -946)">
		<stop  offset="0" style="stop-color:#376AC5"/>
		<stop  offset="0.5128" style="stop-color:#B3C8E7"/>
		<stop  offset="1" style="stop-color:#ADCAEA"/>
	</linearGradient>
	<path style="fill:url(#SVGID_00000051349874022595034000000010769991750874064275_);" d="M112.6,100.7c2-3.8,0.8-9.6-3.4-12.1
		c-3.2-1.9-7.6-1.7-10.2,0.2c-1.6,1.2-2.9,2.6-4.4,3.9c-0.4,0.3-0.6,0.8-1.3,0.8c-1.4-1.4-2.8-2.9-4.1-4.3c-1-0.3-1.7,0.4-2.5,0.6
		c-1.2-1.9-3-2.8-5.3-2.3C70.1,75.8,54.1,58,43,46.5c-0.7-0.2,4.6,9.6,4.6,9.6l31.7,34.1c-0.7,2.3,0.8,3.7,2.2,5
		c-0.4,0.9-1,1.5-0.6,2.6c1.3,1.3,2.7,2.8,4.2,4.4c-1.2,1.1-2.3,2.2-3.4,3.3c-1.2,1.3-2.3,2.8-2.9,4.6c-0.6,1.9-0.7,3.7,0,5.6
		c0.6,1.9,1.7,3.4,3.2,4.7c2.5,2.2,7.6,2.5,10.7,0.4c1.6-1.1,2.7-2.4,4.2-3.6c0.5-0.4,0.8-1.1,1.5-1.2c0.7,0.6,1.3,1.5,2.3,1.4
		c0.6-0.1,0.8-0.8,1.4-0.8c0.5,0.6,1,1.1,1.6,1.6c-0.7,0.8-1.3,1.6-0.7,2.7c0.4,0.9,1.2,1,2.1,0.8c2.6-2.5,5.1-4.9,7.6-7.3
		c0.2-0.9,0.2-1.7-0.6-2c-1-0.4-1.9-0.2-2.8,0.6c-0.6-0.7-1.1-1.2-1.6-1.7c0.2-0.6,0.9-0.8,0.9-1.5c0.2-1.1-1.3-1.4-1.4-2.5
		c1.2-1.2,2.5-2.4,3.7-3.6C111.4,102.7,112.1,101.7,112.6,100.7z M91.7,117c-2,2.1-4.4,2.4-6.9,1.2c-4.4-2-4.5-7.4-2-9.7
		c1.5-1.3,2.8-2.7,4.2-4.1c1.2,0.8,6.8,6.5,8.7,8.8C94.3,114.3,93,115.7,91.7,117z M100.3,113.1c-1.2-0.8-13.7-13.7-15.9-16.3
		c1.4-1.3,2.7-2.6,4.1-3.9c5.3,5.5,10.5,10.9,15.8,16.4C103,110.6,101.6,111.9,100.3,113.1z M109.8,99.1c-0.2,0.4-0.4,0.8-0.7,1.1
		c-1.6,1.5-3.1,3-4.6,4.5c-1.2-0.8-6.8-6.5-8.5-8.7c1.5-1.5,3-2.9,4.5-4.3c1.7-1.6,5.2-1.8,7-0.5C110.2,93,111.1,96.1,109.8,99.1z"
		/>
	
		<linearGradient id="SVGID_00000020377332840830658820000011855557805558409345_" gradientUnits="userSpaceOnUse" x1="82.7717" y1="1058.5063" x2="92.0099" y2="1058.5063" gradientTransform="matrix(1 0 0 1 0 -946)">
		<stop  offset="0.5128" style="stop-color:#B3C8E7"/>
		<stop  offset="1" style="stop-color:#ADCAEA"/>
	</linearGradient>
	<path style="fill:url(#SVGID_00000020377332840830658820000011855557805558409345_);" d="M84.2,109.2c-1.8,1.8-1.9,4.7-0.1,6.5
		s4.7,1.9,6.5,0.1c1.8-1.8,1.9-4.7,0.1-6.5C89,107.5,86.1,107.4,84.2,109.2z M89.3,114.4c-1.1,1-2.7,1-3.8-0.1c-1-1.1-1-2.7,0.1-3.8
		c1.1-1,2.7-1,3.8,0.1C90.4,111.7,90.3,113.4,89.3,114.4z"/>
	
		<linearGradient id="SVGID_00000029021053275257220610000015042555765602152615_" gradientUnits="userSpaceOnUse" x1="99.4203" y1="1042.4879" x2="108.6585" y2="1042.4879" gradientTransform="matrix(1 0 0 1 0 -946)">
		<stop  offset="0.5128" style="stop-color:#B3C8E7"/>
		<stop  offset="1" style="stop-color:#ADCAEA"/>
	</linearGradient>
	<path style="fill:url(#SVGID_00000029021053275257220610000015042555765602152615_);" d="M100.9,93.2c-1.8,1.8-1.9,4.7-0.1,6.5
		s4.7,1.9,6.5,0.1c1.8-1.8,1.9-4.7,0.1-6.5C105.6,91.4,102.7,91.4,100.9,93.2z M105.9,98.4c-1.1,1-2.7,1-3.8-0.1
		c-1-1.1-1-2.7,0.1-3.8c1.1-1,2.7-1,3.8,0.1C107,95.7,107,97.4,105.9,98.4z"/>
</g>
<text transform="matrix(0.9886 0 0 1 209.215 112.126)" class="st4 st5 st11">HOSPITAL MORIAH</text>
<text transform="matrix(0.9886 0 0 1 209.215 112.126)" class="st12 st5 st11">HOSPITAL MORIAH</text>
<g>
	<rect x="150.6" y="105.9" class="st13" width="36.2" height="0.8"/>
	<rect x="410.6" y="105.9" class="st13" width="36.2" height="0.8"/>
</g>
</svg>
