<?xml version="1.0" encoding="utf-8"?>
<!-- Generator: Adobe Illustrator 26.2.1, SVG Export Plug-In . SVG Version: 6.00 Build 0)  -->
<svg version="1.1" id="Camada_1" xmlns="http://www.w3.org/2000/svg" xmlns:xlink="http://www.w3.org/1999/xlink" x="0px" y="0px"
	 viewBox="0 0 467.1 120.5" style="enable-background:new 0 0 467.1 120.5;" xml:space="preserve">
<style type="text/css">
	.st0{enable-background:new    ;}
	.st1{fill:#848484;}
	.st2{fill:none;stroke:#848484;stroke-width:1.5;stroke-linecap:round;stroke-linejoin:round;stroke-miterlimit:10;}
	.st3{fill:#EDEDED;}
	.st4{fill:#CCCCCC;}
	.st5{opacity:0.2;}
	.st6{fill:url(#SVGID_1_);}
	.st7{fill:url(#SVGID_00000176725139673327952040000003866755564013968265_);}
	.st8{fill:url(#XMLID_00000005254739640421578480000016307630110295209654_);}
	.st9{fill:url(#SVGID_00000132049821952415579120000006763557429129211054_);}
	.st10{fill:url(#SVGID_00000148641694709241080360000007605958279251160751_);}
	.st11{fill:url(#SVGID_00000158026669627447998820000012349159026372684710_);}
	.st12{fill:#5B87DA;}
</style>
<g class="st0">
	<path class="st1" d="M105.9,45.3h9.1c2.3,0,4.2,0.7,5.3,1.8c0.9,0.9,1.4,2.1,1.4,3.4v0.1c0,2.5-1.5,3.9-3,4.6
		c2.4,0.8,4.1,2.2,4.1,5v0.1c0,3.7-3,5.7-7.6,5.7h-9.4V45.3z M118.3,51.1c0-1.7-1.4-2.7-3.7-2.7h-5.3v5.7h5.1
		C116.7,54.1,118.3,53.2,118.3,51.1L118.3,51.1z M119.5,60c0-1.8-1.4-2.9-4.3-2.9h-5.8V63h6.1C117.9,63,119.5,62,119.5,60L119.5,60z
		"/>
	<path class="st1" d="M127.5,45.3h3.5v20.7h-3.5V45.3z"/>
	<path class="st1" d="M135.8,55.8L135.8,55.8c0-5.9,4.4-10.8,10.7-10.8c6.3,0,10.7,4.9,10.7,10.6v0.1c0,5.8-4.4,10.7-10.7,10.7
		C140.2,66.4,135.8,61.6,135.8,55.8z M153.5,55.8L153.5,55.8c0-4.2-2.9-7.5-7.1-7.5c-4.1,0-7,3.3-7,7.4v0.1c0,4.1,2.9,7.5,7.1,7.5
		C150.6,63.2,153.5,59.9,153.5,55.8z"/>
	<path class="st1" d="M161.8,45.3h8c4.7,0,7.8,2.8,7.8,6.9v0.1c0,4.7-3.7,7-8.2,7h-4.2v6.7h-3.5V45.3z M169.6,56.2
		c2.8,0,4.6-1.6,4.6-3.8v-0.1c0-2.5-1.8-3.8-4.6-3.8h-4.3v7.7H169.6z"/>
	<path class="st1" d="M180.2,63l2.1-2.5c2,1.7,3.9,2.7,6.5,2.7c2.3,0,3.7-1.1,3.7-2.7v-0.1c0-1.5-0.9-2.3-4.7-3.2
		c-4.4-1.1-6.8-2.4-6.8-6.2V51c0-3.5,2.9-6,7-6c3,0,5.3,0.9,7.4,2.6l-1.9,2.6c-1.8-1.4-3.7-2.1-5.6-2.1c-2.2,0-3.5,1.1-3.5,2.5v0.1
		c0,1.7,1,2.4,5,3.4c4.4,1.1,6.6,2.6,6.6,6v0.1c0,3.8-3,6.1-7.3,6.1C185.6,66.3,182.7,65.3,180.2,63z"/>
	<path class="st1" d="M200.8,45.3h3.5v20.7h-3.5V45.3z"/>
	<path class="st1" d="M217.3,45.2h3.2l9,20.9h-3.6l-2.1-5h-9.9l-2.1,5h-3.5L217.3,45.2z M222.5,57.9l-3.7-8.5l-3.7,8.5H222.5z"/>
	<path class="st1" d="M242.3,45.3h7.6c6.4,0,10.9,4.5,10.9,10.3v0.1c0,5.8-4.5,10.4-10.9,10.4h-7.6V45.3z M245.8,48.5v14.4h4.1
		c4.4,0,7.3-3,7.3-7.1v-0.1c0-4.1-2.9-7.2-7.3-7.2H245.8z"/>
	<path class="st1" d="M265.4,45.3h15.1v3.1h-11.7V54h10.4v3.1h-10.4v5.8h11.9v3.1h-15.3V45.3z"/>
	<path class="st1" d="M294.2,45.3h8c4.7,0,7.8,2.8,7.8,6.9v0.1c0,4.7-3.7,7-8.2,7h-4.2v6.7h-3.5V45.3z M302,56.2
		c2.8,0,4.6-1.6,4.6-3.8v-0.1c0-2.5-1.8-3.8-4.6-3.8h-4.3v7.7H302z"/>
	<path class="st1" d="M314,45.3h9.1c2.6,0,4.6,0.7,5.9,2.1c1.1,1.1,1.7,2.6,1.7,4.4v0.1c0,3.4-2,5.4-5,6.2l5.6,7.9h-4.1l-5.1-7.3
		h-4.6v7.3H314V45.3z M322.8,55.6c2.6,0,4.3-1.4,4.3-3.6V52c0-2.3-1.6-3.5-4.4-3.5h-5.3v7.1H322.8z"/>
	<path class="st1" d="M334.5,55.8L334.5,55.8c0-5.9,4.4-10.8,10.7-10.8c6.3,0,10.7,4.9,10.7,10.6v0.1c0,5.8-4.4,10.7-10.7,10.7
		C338.9,66.4,334.5,61.6,334.5,55.8z M352.2,55.8L352.2,55.8c0-4.2-2.9-7.5-7.1-7.5c-4.1,0-7,3.3-7,7.4v0.1c0,4.1,2.9,7.5,7.1,7.5
		C349.3,63.2,352.2,59.9,352.2,55.8z M349,37.1l3.1,1.4l-3.7,2.8h-2.6L349,37.1z"/>
	<path class="st1" d="M359,63l2.1-2.5c2,1.7,3.9,2.7,6.5,2.7c2.3,0,3.7-1.1,3.7-2.7v-0.1c0-1.5-0.9-2.3-4.7-3.2
		c-4.4-1.1-6.8-2.4-6.8-6.2V51c0-3.5,2.9-6,7-6c3,0,5.3,0.9,7.4,2.6l-1.9,2.6c-1.8-1.4-3.7-2.1-5.6-2.1c-2.2,0-3.5,1.1-3.5,2.5v0.1
		c0,1.7,1,2.4,5,3.4c4.4,1.1,6.6,2.6,6.6,6v0.1c0,3.8-3,6.1-7.3,6.1C364.3,66.3,361.5,65.3,359,63z"/>
	<path class="st1" d="M384,48.6h-6.6v-3.2H394v3.2h-6.5v17.5H384V48.6z"/>
	<path class="st1" d="M402.7,45.2h3.2l9,20.9h-3.6l-2.1-5h-9.9l-2.1,5h-3.5L402.7,45.2z M407.9,57.9l-3.7-8.5l-3.7,8.5H407.9z"/>
	<path class="st1" d="M421.3,48.6h-6.6v-3.2h16.6v3.2h-6.5v17.5h-3.5V48.6z"/>
	<path class="st1" d="M440,45.2h3.2l9,20.9h-3.6l-2.1-5h-9.9l-2.1,5h-3.5L440,45.2z M445.2,57.9l-3.7-8.5l-3.7,8.5H445.2z"/>
</g>
<g class="st0">
	<path class="st2" d="M105.9,45.3h9.1c2.3,0,4.2,0.7,5.3,1.8c0.9,0.9,1.4,2.1,1.4,3.4v0.1c0,2.5-1.5,3.9-3,4.6
		c2.4,0.8,4.1,2.2,4.1,5v0.1c0,3.7-3,5.7-7.6,5.7h-9.4V45.3z M118.3,51.1c0-1.7-1.4-2.7-3.7-2.7h-5.3v5.7h5.1
		C116.7,54.1,118.3,53.2,118.3,51.1L118.3,51.1z M119.5,60c0-1.8-1.4-2.9-4.3-2.9h-5.8V63h6.1C117.9,63,119.5,62,119.5,60L119.5,60z
		"/>
	<path class="st2" d="M127.5,45.3h3.5v20.7h-3.5V45.3z"/>
	<path class="st2" d="M135.8,55.8L135.8,55.8c0-5.9,4.4-10.8,10.7-10.8c6.3,0,10.7,4.9,10.7,10.6v0.1c0,5.8-4.4,10.7-10.7,10.7
		C140.2,66.4,135.8,61.6,135.8,55.8z M153.5,55.8L153.5,55.8c0-4.2-2.9-7.5-7.1-7.5c-4.1,0-7,3.3-7,7.4v0.1c0,4.1,2.9,7.5,7.1,7.5
		C150.6,63.2,153.5,59.9,153.5,55.8z"/>
	<path class="st2" d="M161.8,45.3h8c4.7,0,7.8,2.8,7.8,6.9v0.1c0,4.7-3.7,7-8.2,7h-4.2v6.7h-3.5V45.3z M169.6,56.2
		c2.8,0,4.6-1.6,4.6-3.8v-0.1c0-2.5-1.8-3.8-4.6-3.8h-4.3v7.7H169.6z"/>
	<path class="st2" d="M180.2,63l2.1-2.5c2,1.7,3.9,2.7,6.5,2.7c2.3,0,3.7-1.1,3.7-2.7v-0.1c0-1.5-0.9-2.3-4.7-3.2
		c-4.4-1.1-6.8-2.4-6.8-6.2V51c0-3.5,2.9-6,7-6c3,0,5.3,0.9,7.4,2.6l-1.9,2.6c-1.8-1.4-3.7-2.1-5.6-2.1c-2.2,0-3.5,1.1-3.5,2.5v0.1
		c0,1.7,1,2.4,5,3.4c4.4,1.1,6.6,2.6,6.6,6v0.1c0,3.8-3,6.1-7.3,6.1C185.6,66.3,182.7,65.3,180.2,63z"/>
	<path class="st2" d="M200.8,45.3h3.5v20.7h-3.5V45.3z"/>
	<path class="st2" d="M217.3,45.2h3.2l9,20.9h-3.6l-2.1-5h-9.9l-2.1,5h-3.5L217.3,45.2z M222.5,57.9l-3.7-8.5l-3.7,8.5H222.5z"/>
	<path class="st2" d="M242.3,45.3h7.6c6.4,0,10.9,4.5,10.9,10.3v0.1c0,5.8-4.5,10.4-10.9,10.4h-7.6V45.3z M245.8,48.5v14.4h4.1
		c4.4,0,7.3-3,7.3-7.1v-0.1c0-4.1-2.9-7.2-7.3-7.2H245.8z"/>
	<path class="st2" d="M265.4,45.3h15.1v3.1h-11.7V54h10.4v3.1h-10.4v5.8h11.9v3.1h-15.3V45.3z"/>
	<path class="st2" d="M294.2,45.3h8c4.7,0,7.8,2.8,7.8,6.9v0.1c0,4.7-3.7,7-8.2,7h-4.2v6.7h-3.5V45.3z M302,56.2
		c2.8,0,4.6-1.6,4.6-3.8v-0.1c0-2.5-1.8-3.8-4.6-3.8h-4.3v7.7H302z"/>
	<path class="st2" d="M314,45.3h9.1c2.6,0,4.6,0.7,5.9,2.1c1.1,1.1,1.7,2.6,1.7,4.4v0.1c0,3.4-2,5.4-5,6.2l5.6,7.9h-4.1l-5.1-7.3
		h-4.6v7.3H314V45.3z M322.8,55.6c2.6,0,4.3-1.4,4.3-3.6V52c0-2.3-1.6-3.5-4.4-3.5h-5.3v7.1H322.8z"/>
	<path class="st2" d="M334.5,55.8L334.5,55.8c0-5.9,4.4-10.8,10.7-10.8c6.3,0,10.7,4.9,10.7,10.6v0.1c0,5.8-4.4,10.7-10.7,10.7
		C338.9,66.4,334.5,61.6,334.5,55.8z M352.2,55.8L352.2,55.8c0-4.2-2.9-7.5-7.1-7.5c-4.1,0-7,3.3-7,7.4v0.1c0,4.1,2.9,7.5,7.1,7.5
		C349.3,63.2,352.2,59.9,352.2,55.8z M349,37.1l3.1,1.4l-3.7,2.8h-2.6L349,37.1z"/>
	<path class="st2" d="M359,63l2.1-2.5c2,1.7,3.9,2.7,6.5,2.7c2.3,0,3.7-1.1,3.7-2.7v-0.1c0-1.5-0.9-2.3-4.7-3.2
		c-4.4-1.1-6.8-2.4-6.8-6.2V51c0-3.5,2.9-6,7-6c3,0,5.3,0.9,7.4,2.6l-1.9,2.6c-1.8-1.4-3.7-2.1-5.6-2.1c-2.2,0-3.5,1.1-3.5,2.5v0.1
		c0,1.7,1,2.4,5,3.4c4.4,1.1,6.6,2.6,6.6,6v0.1c0,3.8-3,6.1-7.3,6.1C364.3,66.3,361.5,65.3,359,63z"/>
	<path class="st2" d="M384,48.6h-6.6v-3.2H394v3.2h-6.5v17.5H384V48.6z"/>
	<path class="st2" d="M402.7,45.2h3.2l9,20.9h-3.6l-2.1-5h-9.9l-2.1,5h-3.5L402.7,45.2z M407.9,57.9l-3.7-8.5l-3.7,8.5H407.9z"/>
	<path class="st2" d="M421.3,48.6h-6.6v-3.2h16.6v3.2h-6.5v17.5h-3.5V48.6z"/>
	<path class="st2" d="M440,45.2h3.2l9,20.9h-3.6l-2.1-5h-9.9l-2.1,5h-3.5L440,45.2z M445.2,57.9l-3.7-8.5l-3.7,8.5H445.2z"/>
</g>
<g>
	<g>
		<circle class="st3" cx="43" cy="52.9" r="29.3"/>
	</g>
	<g id="XMLID_35_">
		<path id="XMLID_00000174603091570798863570000012384542157824918703_" class="st4" d="M43.2,13.7c-1,0-22.7-0.6-19.9,27.5
			c0,0,4-15.7,19.9-15.7s19.7,15.7,19.7,15.7C65.8,13.2,44.2,13.7,43.2,13.7z"/>
		<g id="XMLID_47_">
			<g class="st5">
				<path d="M55.2,28.9c0,0,13.4,7.3,4.5,24.9c-8.7,17.5-20.9,43-20.9,43L13.2,73.9C13.2,73.8,52.6,42.3,55.2,28.9z"/>
			</g>
			<g>
				
					<linearGradient id="SVGID_1_" gradientUnits="userSpaceOnUse" x1="51.233" y1="2723.6548" x2="10.8688" y2="2768.8491" gradientTransform="matrix(1 2.500000e-03 -2.500000e-03 1 23.3582 -2687.6052)">
					<stop  offset="0" style="stop-color:#376AC5"/>
					<stop  offset="0.4409" style="stop-color:#6C95E7"/>
					<stop  offset="1" style="stop-color:#4479CC"/>
				</linearGradient>
				<path class="st6" d="M55.7,27.2c0,0,13.2,7.5,4.1,24.9c-9,17.4-21.6,42.6-21.6,42.6L13,71.5C13,71.4,52.9,40.5,55.7,27.2z"/>
			</g>
		</g>
		<g id="XMLID_46_">
			<g class="st5">
				<path d="M30.7,28.9c0,0-13.2,7.4-4.4,24.9c9,17.5,40,56.5,40,56.5l30.9-32.1C97.2,78.2,33.5,42.4,30.7,28.9z"/>
			</g>
			<g>
				
					<linearGradient id="SVGID_00000157269412563731487020000000329710455464994456_" gradientUnits="userSpaceOnUse" x1="19.5725" y1="2707.0627" x2="73.4996" y2="2800.6863" gradientTransform="matrix(1 2.500000e-03 -2.500000e-03 1 23.3582 -2687.6052)">
					<stop  offset="0" style="stop-color:#376AC5"/>
					<stop  offset="0.4409" style="stop-color:#6C95E7"/>
					<stop  offset="1" style="stop-color:#4479CC"/>
				</linearGradient>
				<path style="fill:url(#SVGID_00000157269412563731487020000000329710455464994456_);" d="M30.7,27c0,0-13.2,7.4-4.4,24.9
					c9,17.5,40,56.5,40,56.5l30.9-32.1C97.2,76.3,33.5,40.5,30.7,27z"/>
			</g>
		</g>
		
			<linearGradient id="XMLID_00000003786579281636948670000014620879404056154270_" gradientUnits="userSpaceOnUse" x1="6.5374" y1="2714.0532" x2="46.6173" y2="2714.0532" gradientTransform="matrix(1 2.500000e-03 -2.500000e-03 1 23.3582 -2687.6052)">
			<stop  offset="0" style="stop-color:#4479CC"/>
			<stop  offset="0.4409" style="stop-color:#66A8F0"/>
			<stop  offset="1" style="stop-color:#386EC0"/>
		</linearGradient>
		<path id="XMLID_38_" style="fill:url(#XMLID_00000003786579281636948670000014620879404056154270_);" d="M43.2,12.7
			c-1,0-22.7-0.6-19.9,27.5c0,0,4-15.7,19.9-15.7s19.7,15.7,19.7,15.7C65.8,12.2,44.2,12.7,43.2,12.7z"/>
	</g>
	<g>
		
			<linearGradient id="SVGID_00000178182004465863622740000010900389107935776932_" gradientUnits="userSpaceOnUse" x1="26.4188" y1="-891.2488" x2="83.5639" y2="-891.2488" gradientTransform="matrix(1 0 0 -1 0 -826.6452)">
			<stop  offset="0" style="stop-color:#376AC5"/>
			<stop  offset="0.5128" style="stop-color:#B3C8E7"/>
			<stop  offset="1" style="stop-color:#ADCAEA"/>
		</linearGradient>
		<path style="fill:url(#SVGID_00000178182004465863622740000010900389107935776932_);" d="M82.8,77.8c1.6-3.1,0.6-7.8-2.7-9.8
			c-2.6-1.5-6.1-1.4-8.2,0.2c-1.3,1-2.3,2.1-3.6,3.1c-0.3,0.2-0.5,0.6-1,0.6c-1.1-1.1-2.3-2.3-3.3-3.5c-0.8-0.2-1.4,0.3-2,0.5
			c-1-1.5-2.4-2.3-4.3-1.9c-9.1-9.4-22-23.8-31-33.1c-0.6-0.2,3.7,7.8,3.7,7.8L56,69.3c-0.6,1.9,0.6,3,1.8,4
			c-0.3,0.7-0.8,1.2-0.5,2.1c1,1,2.2,2.3,3.4,3.6c-1,0.9-1.9,1.8-2.7,2.7c-1,1-1.9,2.3-2.3,3.7c-0.5,1.5-0.6,3,0,4.5
			c0.5,1.5,1.4,2.7,2.6,3.8c2,1.8,6.1,2,8.6,0.3c1.3-0.9,2.2-1.9,3.4-2.9c0.4-0.3,0.6-0.9,1.2-1c0.6,0.5,1,1.2,1.9,1.1
			c0.5-0.1,0.6-0.6,1.1-0.6c0.4,0.5,0.8,0.9,1.3,1.3c-0.6,0.6-1,1.3-0.6,2.2c0.3,0.7,1,0.8,1.7,0.6c2.1-2,4.1-4,6.1-5.9
			c0.2-0.7,0.2-1.4-0.5-1.6c-0.8-0.3-1.5-0.2-2.3,0.5c-0.5-0.6-0.9-1-1.3-1.4c0.2-0.5,0.7-0.6,0.7-1.2c0.2-0.9-1-1.1-1.1-2
			c1-1,2-1.9,3-2.9C81.9,79.4,82.4,78.6,82.8,77.8z M66,91c-1.6,1.7-3.6,1.9-5.6,1c-3.6-1.6-3.6-6-1.6-7.8c1.2-1,2.3-2.2,3.4-3.3
			c1,0.6,5.5,5.2,7,7.1C68.1,88.8,67,89.9,66,91z M72.9,87.8c-1-0.6-11.1-11.1-12.8-13.2c1.1-1,2.2-2.1,3.3-3.1
			c4.3,4.4,8.5,8.8,12.8,13.2C75.1,85.8,74,86.8,72.9,87.8z M80.6,76.5c-0.2,0.3-0.3,0.6-0.6,0.9c-1.3,1.2-2.5,2.4-3.7,3.6
			c-1-0.6-5.5-5.2-6.9-7c1.2-1.2,2.4-2.3,3.6-3.5c1.4-1.3,4.2-1.5,5.7-0.4C80.9,71.6,81.6,74.1,80.6,76.5z"/>
		
			<linearGradient id="SVGID_00000130644384646336436500000018378538552421479049_" gradientUnits="userSpaceOnUse" x1="58.7599" y1="-913.9666" x2="66.218" y2="-913.9666" gradientTransform="matrix(1 0 0 -1 0 -826.6452)">
			<stop  offset="0.5128" style="stop-color:#B3C8E7"/>
			<stop  offset="1" style="stop-color:#ADCAEA"/>
		</linearGradient>
		<path style="fill:url(#SVGID_00000130644384646336436500000018378538552421479049_);" d="M59.9,84.7c-1.5,1.5-1.5,3.8-0.1,5.2
			c1.5,1.5,3.8,1.5,5.2,0.1c1.5-1.5,1.5-3.8,0.1-5.2C63.8,83.3,61.4,83.2,59.9,84.7z M64,88.9c-0.9,0.8-2.2,0.8-3.1-0.1
			c-0.8-0.9-0.8-2.2,0.1-3.1c0.9-0.8,2.2-0.8,3.1,0.1C64.9,86.7,64.8,88,64,88.9z"/>
		
			<linearGradient id="SVGID_00000171696945599284677900000001747780523378358949_" gradientUnits="userSpaceOnUse" x1="72.2006" y1="-901.0347" x2="79.6587" y2="-901.0347" gradientTransform="matrix(1 0 0 -1 0 -826.6452)">
			<stop  offset="0.5128" style="stop-color:#B3C8E7"/>
			<stop  offset="1" style="stop-color:#ADCAEA"/>
		</linearGradient>
		<path style="fill:url(#SVGID_00000171696945599284677900000001747780523378358949_);" d="M73.4,71.7c-1.5,1.5-1.5,3.8-0.1,5.2
			s3.8,1.5,5.2,0.1c1.5-1.5,1.5-3.8,0.1-5.2C77.2,70.3,74.8,70.3,73.4,71.7z M77.4,75.9c-0.9,0.8-2.2,0.8-3.1-0.1
			c-0.8-0.9-0.8-2.2,0.1-3.1c0.9-0.8,2.2-0.8,3.1,0.1C78.3,73.8,78.3,75.1,77.4,75.9z"/>
	</g>
</g>
<g>
	<rect x="127.4" y="85.6" class="st12" width="305.5" height="0.8"/>
</g>
<g>
	<rect x="127.4" y="23.6" class="st12" width="305.5" height="0.8"/>
</g>
</svg>
