<?xml version="1.0" encoding="utf-8"?>
<!-- Generator: Adobe Illustrator 26.2.1, SVG Export Plug-In . SVG Version: 6.00 Build 0)  -->
<svg version="1.1" id="Camada_1" xmlns="http://www.w3.org/2000/svg" xmlns:xlink="http://www.w3.org/1999/xlink" x="0px" y="0px"
	 viewBox="0 0 661 120.5" style="enable-background:new 0 0 661 120.5;" xml:space="preserve">
<style type="text/css">
	.st0{enable-background:new    ;}
	.st1{fill:#848484;}
	.st2{fill:none;stroke:#848484;stroke-width:1.5;stroke-linecap:round;stroke-linejoin:round;stroke-miterlimit:10;}
	.st3{fill:#EDEDED;}
	.st4{fill:#CCCCCC;}
	.st5{opacity:0.2;}
	.st6{fill:url(#SVGID_1_);}
	.st7{fill:url(#SVGID_00000082327076418820646690000009668593198825357184_);}
	.st8{fill:url(#XMLID_00000132048466766212287090000004538588433787949972_);}
	.st9{fill:url(#SVGID_00000005987541181363405740000000335082627410575016_);}
	.st10{fill:url(#SVGID_00000176038383419396282130000010738438269424495502_);}
	.st11{fill:url(#SVGID_00000137107996151684171200000018261775368380767678_);}
</style>
<g>
	<g class="st0">
		<path class="st1" d="M115.9,47.3h14c3.6,0,6.5,1.1,8.2,2.8c1.3,1.3,2.1,3.3,2.1,5.3v0.1c0,3.8-2.4,5.9-4.6,7.1
			c3.7,1.2,6.3,3.4,6.3,7.7v0.1c0,5.7-4.6,8.7-11.7,8.7h-14.5V47.3H115.9z M135,56.3c0-2.6-2.1-4.1-5.7-4.1h-8.2v8.7h7.8
			C132.5,60.9,135,59.5,135,56.3L135,56.3z M136.9,70c0-2.8-2.1-4.5-6.6-4.5h-8.9v9.1h9.4C134.4,74.6,136.9,73,136.9,70L136.9,70z"
			/>
		<path class="st1" d="M149.1,47.3h5.4v31.8h-5.4V47.3z"/>
		<path class="st1" d="M161.9,63.5L161.9,63.5c0-9.1,6.7-16.6,16.5-16.6s16.5,7.5,16.5,16.3v0.1c0,8.9-6.7,16.5-16.5,16.5
			S161.9,72.4,161.9,63.5z M189.1,63.5L189.1,63.5c0-6.5-4.5-11.5-10.9-11.5c-6.3,0-10.8,5-10.8,11.3v0.1c0,6.3,4.5,11.5,10.9,11.5
			C184.6,74.9,189.1,69.8,189.1,63.5z"/>
		<path class="st1" d="M201.8,47.3h12.3c7.2,0,12,4.3,12,10.7v0.1c0,7.2-5.7,10.8-12.6,10.8h-6.5v10.3h-5.4V47.3H201.8z M213.8,64.1
			c4.3,0,7.1-2.5,7.1-5.8v-0.1c0-3.8-2.8-5.8-7.1-5.8h-6.6v11.9C207.2,64.1,213.8,64.1,213.8,64.1z"/>
		<path class="st1" d="M230.2,74.6l3.3-3.8c3,2.6,5.9,4.1,10,4.1c3.6,0,5.7-1.7,5.7-4.1v-0.2c0-2.4-1.3-3.6-7.2-4.9
			c-6.7-1.7-10.4-3.7-10.4-9.5l0,0c0-5.4,4.5-9.2,10.8-9.2c4.6,0,8.2,1.3,11.3,4l-2.9,4c-2.8-2.1-5.7-3.3-8.6-3.3
			c-3.4,0-5.4,1.7-5.4,3.8v0.1c0,2.6,1.6,3.7,7.7,5.3c6.7,1.7,10.1,4,10.1,9.2v0.1c0,5.8-4.6,9.4-11.2,9.4
			C238.5,79.6,234,78,230.2,74.6z"/>
		<path class="st1" d="M261.8,47.3h5.4v31.8h-5.4V47.3z"/>
		<path class="st1" d="M287.1,47.2h4.9l13.8,32.1h-5.5l-3.3-7.7h-15.2l-3.3,7.7h-5.4L287.1,47.2z M295.1,66.7l-5.7-13l-5.7,13H295.1
			z"/>
		<path class="st1" d="M325.5,47.3h11.7c9.9,0,16.7,7,16.7,15.8v0.1c0,8.9-7,16-16.7,16h-11.7V47.3L325.5,47.3z M330.8,52.3v22.1
			h6.3c6.7,0,11.2-4.6,11.2-10.9v-0.1c0-6.3-4.5-11.1-11.2-11.1C337.2,52.3,330.8,52.3,330.8,52.3z"/>
		<path class="st1" d="M361,47.3h23.2V52h-17.9v8.6h16v4.7h-16v8.9h18.3v4.7H361V47.3z"/>
		<path class="st1" d="M405.3,47.3h12.3c7.2,0,12,4.3,12,10.7v0.1c0,7.2-5.7,10.8-12.6,10.8h-6.5v10.3h-5.4V47.3H405.3z M417.3,64.1
			c4.3,0,7.1-2.5,7.1-5.8v-0.1c0-3.8-2.8-5.8-7.1-5.8h-6.6v11.9C410.7,64.1,417.3,64.1,417.3,64.1z"/>
		<path class="st1" d="M435.7,47.3h14c4,0,7.1,1.1,9.1,3.3c1.7,1.7,2.6,4,2.6,6.7v0.1c0,5.3-3,8.3-7.7,9.5l8.6,12.1H456l-7.8-11.2
			H441v11.2h-5.4L435.7,47.3L435.7,47.3z M449.2,63.2c4,0,6.6-2.1,6.6-5.5l0,0c0-3.6-2.5-5.4-6.7-5.4h-8.2v10.9H449.2z"/>
		<path class="st1" d="M467.2,63.5L467.2,63.5c0-9.1,6.7-16.6,16.5-16.6c9.8,0,16.5,7.5,16.5,16.3v0.1c0,8.9-6.7,16.5-16.5,16.5
			C473.9,79.7,467.2,72.4,467.2,63.5z M494.3,63.5L494.3,63.5c0-6.5-4.5-11.5-10.9-11.5c-6.3,0-10.8,5-10.8,11.3v0.1
			c0,6.3,4.5,11.5,10.9,11.5C489.9,74.9,494.3,69.8,494.3,63.5z M489.5,34.8l4.7,2.1l-5.7,4.3h-4L489.5,34.8z"/>
		<path class="st1" d="M504.8,74.6l3.3-3.8c3,2.6,5.9,4.1,10,4.1c3.6,0,5.7-1.7,5.7-4.1v-0.2c0-2.4-1.3-3.6-7.2-4.9
			c-6.7-1.7-10.4-3.7-10.4-9.5l0,0c0-5.4,4.5-9.2,10.8-9.2c4.6,0,8.2,1.3,11.3,4l-2.9,4c-2.8-2.1-5.7-3.3-8.6-3.3
			c-3.4,0-5.4,1.7-5.4,3.8v0.1c0,2.6,1.6,3.7,7.7,5.3c6.7,1.7,10.1,4,10.1,9.2v0.1c0,5.8-4.6,9.4-11.2,9.4
			C512.9,79.6,508.6,78,504.8,74.6z"/>
		<path class="st1" d="M543.2,52.5h-10.1v-4.9h25.4v4.9h-10v26.9h-5.4V52.5z"/>
		<path class="st1" d="M571.9,47.2h4.9l13.8,32.1h-5.5l-3.3-7.7h-15.1l-3.3,7.7h-5.4L571.9,47.2z M579.9,66.7l-5.7-13l-5.7,13H579.9
			z"/>
		<path class="st1" d="M600.5,52.5h-10.1v-4.9h25.4v4.9h-10v26.9h-5.4V52.5z"/>
		<path class="st1" d="M629.3,47.2h4.9L648,79.3h-5.5l-3.3-7.7H624l-3.3,7.7h-5.4L629.3,47.2z M637.2,66.7l-5.7-13l-5.7,13H637.2z"
			/>
	</g>
	<g class="st0">
		<path class="st2" d="M115.9,47.3h14c3.6,0,6.5,1.1,8.2,2.8c1.3,1.3,2.1,3.3,2.1,5.3v0.1c0,3.8-2.4,5.9-4.6,7.1
			c3.7,1.2,6.3,3.4,6.3,7.7v0.1c0,5.7-4.6,8.7-11.7,8.7h-14.5V47.3H115.9z M135,56.3c0-2.6-2.1-4.1-5.7-4.1h-8.2v8.7h7.8
			C132.5,60.9,135,59.5,135,56.3L135,56.3z M136.9,70c0-2.8-2.1-4.5-6.6-4.5h-8.9v9.1h9.4C134.4,74.6,136.9,73,136.9,70L136.9,70z"
			/>
		<path class="st2" d="M149.1,47.3h5.4v31.8h-5.4V47.3z"/>
		<path class="st2" d="M161.9,63.5L161.9,63.5c0-9.1,6.7-16.6,16.5-16.6s16.5,7.5,16.5,16.3v0.1c0,8.9-6.7,16.5-16.5,16.5
			S161.9,72.4,161.9,63.5z M189.1,63.5L189.1,63.5c0-6.5-4.5-11.5-10.9-11.5c-6.3,0-10.8,5-10.8,11.3v0.1c0,6.3,4.5,11.5,10.9,11.5
			C184.6,74.9,189.1,69.8,189.1,63.5z"/>
		<path class="st2" d="M201.8,47.3h12.3c7.2,0,12,4.3,12,10.7v0.1c0,7.2-5.7,10.8-12.6,10.8h-6.5v10.3h-5.4V47.3H201.8z M213.8,64.1
			c4.3,0,7.1-2.5,7.1-5.8v-0.1c0-3.8-2.8-5.8-7.1-5.8h-6.6v11.9C207.2,64.1,213.8,64.1,213.8,64.1z"/>
		<path class="st2" d="M230.2,74.6l3.3-3.8c3,2.6,5.9,4.1,10,4.1c3.6,0,5.7-1.7,5.7-4.1v-0.2c0-2.4-1.3-3.6-7.2-4.9
			c-6.7-1.7-10.4-3.7-10.4-9.5l0,0c0-5.4,4.5-9.2,10.8-9.2c4.6,0,8.2,1.3,11.3,4l-2.9,4c-2.8-2.1-5.7-3.3-8.6-3.3
			c-3.4,0-5.4,1.7-5.4,3.8v0.1c0,2.6,1.6,3.7,7.7,5.3c6.7,1.7,10.1,4,10.1,9.2v0.1c0,5.8-4.6,9.4-11.2,9.4
			C238.5,79.6,234,78,230.2,74.6z"/>
		<path class="st2" d="M261.8,47.3h5.4v31.8h-5.4V47.3z"/>
		<path class="st2" d="M287.1,47.2h4.9l13.8,32.1h-5.5l-3.3-7.7h-15.2l-3.3,7.7h-5.4L287.1,47.2z M295.1,66.7l-5.7-13l-5.7,13H295.1
			z"/>
		<path class="st2" d="M325.5,47.3h11.7c9.9,0,16.7,7,16.7,15.8v0.1c0,8.9-7,16-16.7,16h-11.7V47.3L325.5,47.3z M330.8,52.3v22.1
			h6.3c6.7,0,11.2-4.6,11.2-10.9v-0.1c0-6.3-4.5-11.1-11.2-11.1C337.2,52.3,330.8,52.3,330.8,52.3z"/>
		<path class="st2" d="M361,47.3h23.2V52h-17.9v8.6h16v4.7h-16v8.9h18.3v4.7H361V47.3z"/>
		<path class="st2" d="M405.3,47.3h12.3c7.2,0,12,4.3,12,10.7v0.1c0,7.2-5.7,10.8-12.6,10.8h-6.5v10.3h-5.4V47.3H405.3z M417.3,64.1
			c4.3,0,7.1-2.5,7.1-5.8v-0.1c0-3.8-2.8-5.8-7.1-5.8h-6.6v11.9C410.7,64.1,417.3,64.1,417.3,64.1z"/>
		<path class="st2" d="M435.7,47.3h14c4,0,7.1,1.1,9.1,3.3c1.7,1.7,2.6,4,2.6,6.7v0.1c0,5.3-3,8.3-7.7,9.5l8.6,12.1H456l-7.8-11.2
			H441v11.2h-5.4L435.7,47.3L435.7,47.3z M449.2,63.2c4,0,6.6-2.1,6.6-5.5l0,0c0-3.6-2.5-5.4-6.7-5.4h-8.2v10.9H449.2z"/>
		<path class="st2" d="M467.2,63.5L467.2,63.5c0-9.1,6.7-16.6,16.5-16.6c9.8,0,16.5,7.5,16.5,16.3v0.1c0,8.9-6.7,16.5-16.5,16.5
			C473.9,79.7,467.2,72.4,467.2,63.5z M494.3,63.5L494.3,63.5c0-6.5-4.5-11.5-10.9-11.5c-6.3,0-10.8,5-10.8,11.3v0.1
			c0,6.3,4.5,11.5,10.9,11.5C489.9,74.9,494.3,69.8,494.3,63.5z M489.5,34.8l4.7,2.1l-5.7,4.3h-4L489.5,34.8z"/>
		<path class="st2" d="M504.8,74.6l3.3-3.8c3,2.6,5.9,4.1,10,4.1c3.6,0,5.7-1.7,5.7-4.1v-0.2c0-2.4-1.3-3.6-7.2-4.9
			c-6.7-1.7-10.4-3.7-10.4-9.5l0,0c0-5.4,4.5-9.2,10.8-9.2c4.6,0,8.2,1.3,11.3,4l-2.9,4c-2.8-2.1-5.7-3.3-8.6-3.3
			c-3.4,0-5.4,1.7-5.4,3.8v0.1c0,2.6,1.6,3.7,7.7,5.3c6.7,1.7,10.1,4,10.1,9.2v0.1c0,5.8-4.6,9.4-11.2,9.4
			C512.9,79.6,508.6,78,504.8,74.6z"/>
		<path class="st2" d="M543.2,52.5h-10.1v-4.9h25.4v4.9h-10v26.9h-5.4V52.5z"/>
		<path class="st2" d="M571.9,47.2h4.9l13.8,32.1h-5.5l-3.3-7.7h-15.1l-3.3,7.7h-5.4L571.9,47.2z M579.9,66.7l-5.7-13l-5.7,13H579.9
			z"/>
		<path class="st2" d="M600.5,52.5h-10.1v-4.9h25.4v4.9h-10v26.9h-5.4V52.5z"/>
		<path class="st2" d="M629.3,47.2h4.9L648,79.3h-5.5l-3.3-7.7H624l-3.3,7.7h-5.4L629.3,47.2z M637.2,66.7l-5.7-13l-5.7,13H637.2z"
			/>
	</g>
</g>
<g>
	<g>
		<circle class="st3" cx="43" cy="52.9" r="29.3"/>
	</g>
	<g id="XMLID_35_">
		<path id="XMLID_00000174603091570798863570000012384542157824918703_" class="st4" d="M43.2,13.7c-1,0-22.7-0.6-19.9,27.5
			c0,0,4-15.7,19.9-15.7s19.7,15.7,19.7,15.7C65.8,13.2,44.2,13.7,43.2,13.7z"/>
		<g id="XMLID_47_">
			<g class="st5">
				<path d="M55.2,28.9c0,0,13.4,7.3,4.5,24.9c-8.7,17.5-20.9,43-20.9,43L13.2,73.9C13.2,73.8,52.6,42.3,55.2,28.9z"/>
			</g>
			<g>
				
					<linearGradient id="SVGID_1_" gradientUnits="userSpaceOnUse" x1="53.5841" y1="3678.1475" x2="13.2199" y2="3723.3418" gradientTransform="matrix(1 2.500000e-03 -2.500000e-03 1 23.3582 -3642.1353)">
					<stop  offset="0" style="stop-color:#376AC5"/>
					<stop  offset="0.4409" style="stop-color:#6C95E7"/>
					<stop  offset="1" style="stop-color:#4479CC"/>
				</linearGradient>
				<path class="st6" d="M55.7,27.2c0,0,13.2,7.5,4.1,24.9c-9,17.4-21.6,42.6-21.6,42.6L13,71.5C13,71.4,52.9,40.5,55.7,27.2z"/>
			</g>
		</g>
		<g id="XMLID_46_">
			<g class="st5">
				<path d="M30.7,28.9c0,0-13.2,7.4-4.4,24.9c9,17.5,40,56.5,40,56.5l30.9-32.1C97.2,78.2,33.5,42.4,30.7,28.9z"/>
			</g>
			<g>
				
					<linearGradient id="SVGID_00000181785839763689943240000005414272850083446966_" gradientUnits="userSpaceOnUse" x1="21.9644" y1="3661.5837" x2="75.8915" y2="3755.207" gradientTransform="matrix(1 2.500000e-03 -2.500000e-03 1 23.3582 -3642.1353)">
					<stop  offset="0" style="stop-color:#376AC5"/>
					<stop  offset="0.4409" style="stop-color:#6C95E7"/>
					<stop  offset="1" style="stop-color:#4479CC"/>
				</linearGradient>
				<path style="fill:url(#SVGID_00000181785839763689943240000005414272850083446966_);" d="M30.7,27c0,0-13.2,7.4-4.4,24.9
					c9,17.5,40,56.5,40,56.5l30.9-32.1C97.2,76.3,33.5,40.5,30.7,27z"/>
			</g>
		</g>
		
			<linearGradient id="XMLID_00000015320502028900183470000007680988544332344994_" gradientUnits="userSpaceOnUse" x1="8.8863" y1="3668.5371" x2="49.0028" y2="3668.5371" gradientTransform="matrix(1 2.500000e-03 -2.500000e-03 1 23.3582 -3642.1353)">
			<stop  offset="0" style="stop-color:#4479CC"/>
			<stop  offset="0.4409" style="stop-color:#66A8F0"/>
			<stop  offset="1" style="stop-color:#386EC0"/>
		</linearGradient>
		<path id="XMLID_38_" style="fill:url(#XMLID_00000015320502028900183470000007680988544332344994_);" d="M43.2,12.7
			c-1,0-22.7-0.6-19.9,27.5c0,0,4-15.7,19.9-15.7s19.7,15.7,19.7,15.7C65.8,12.2,44.2,12.7,43.2,12.7z"/>
	</g>
	<g>
		
			<linearGradient id="SVGID_00000091698513647804366090000010832216426385509517_" gradientUnits="userSpaceOnUse" x1="26.4188" y1="-1849.178" x2="83.5639" y2="-1849.178" gradientTransform="matrix(1 0 0 -1 0 -1784.6453)">
			<stop  offset="0" style="stop-color:#376AC5"/>
			<stop  offset="0.5128" style="stop-color:#B3C8E7"/>
			<stop  offset="1" style="stop-color:#ADCAEA"/>
		</linearGradient>
		<path style="fill:url(#SVGID_00000091698513647804366090000010832216426385509517_);" d="M82.8,77.8c1.6-3.1,0.6-7.8-2.7-9.8
			c-2.6-1.5-6.1-1.4-8.2,0.2c-1.3,1-2.3,2.1-3.6,3.1c-0.3,0.2-0.5,0.6-1,0.6c-1.1-1.1-2.3-2.3-3.3-3.5c-0.8-0.2-1.4,0.3-2,0.5
			c-1-1.5-2.4-2.3-4.3-1.9c-9.1-9.4-22-23.8-31-33.1c-0.6-0.2,3.7,7.8,3.7,7.8L56,69.3c-0.6,1.9,0.6,3,1.8,4
			c-0.3,0.7-0.8,1.2-0.5,2.1c1,1,2.2,2.3,3.4,3.6c-1,0.9-1.9,1.8-2.7,2.7c-1,1-1.9,2.3-2.3,3.7c-0.5,1.5-0.6,3,0,4.5
			c0.5,1.5,1.4,2.7,2.6,3.8c2,1.8,6.1,2,8.6,0.3c1.3-0.9,2.2-1.9,3.4-2.9c0.4-0.3,0.6-0.9,1.2-1c0.6,0.5,1,1.2,1.9,1.1
			c0.5-0.1,0.6-0.6,1.1-0.6c0.4,0.5,0.8,0.9,1.3,1.3c-0.6,0.6-1,1.3-0.6,2.2c0.3,0.7,1,0.8,1.7,0.6c2.1-2,4.1-4,6.1-5.9
			c0.2-0.7,0.2-1.4-0.5-1.6c-0.8-0.3-1.5-0.2-2.3,0.5c-0.5-0.6-0.9-1-1.3-1.4c0.2-0.5,0.7-0.6,0.7-1.2c0.2-0.9-1-1.1-1.1-2
			c1-1,2-1.9,3-2.9C81.9,79.4,82.4,78.6,82.8,77.8z M66,91c-1.6,1.7-3.6,1.9-5.6,1c-3.6-1.6-3.6-6-1.6-7.8c1.2-1,2.3-2.2,3.4-3.3
			c1,0.6,5.5,5.2,7,7.1C68.1,88.8,67,89.9,66,91z M72.9,87.8c-1-0.6-11.1-11.1-12.8-13.2c1.1-1,2.2-2.1,3.3-3.1
			c4.3,4.4,8.5,8.8,12.8,13.2C75.1,85.8,74,86.8,72.9,87.8z M80.6,76.5c-0.2,0.3-0.3,0.6-0.6,0.9c-1.3,1.2-2.5,2.4-3.7,3.6
			c-1-0.6-5.5-5.2-6.9-7c1.2-1.2,2.4-2.3,3.6-3.5c1.4-1.3,4.2-1.5,5.7-0.4C80.9,71.6,81.6,74.1,80.6,76.5z"/>
		
			<linearGradient id="SVGID_00000105426847880779928870000001496436686371157179_" gradientUnits="userSpaceOnUse" x1="58.7622" y1="-1871.9761" x2="66.2203" y2="-1871.9761" gradientTransform="matrix(1 0 0 -1 0 -1784.6453)">
			<stop  offset="0.5128" style="stop-color:#B3C8E7"/>
			<stop  offset="1" style="stop-color:#ADCAEA"/>
		</linearGradient>
		<path style="fill:url(#SVGID_00000105426847880779928870000001496436686371157179_);" d="M59.9,84.7c-1.5,1.5-1.5,3.8-0.1,5.2
			c1.5,1.5,3.8,1.5,5.2,0.1c1.5-1.5,1.5-3.8,0.1-5.2C63.8,83.3,61.4,83.2,59.9,84.7z M64,88.9c-0.9,0.8-2.2,0.8-3.1-0.1
			c-0.8-0.9-0.8-2.2,0.1-3.1c0.9-0.8,2.2-0.8,3.1,0.1C64.9,86.7,64.8,88,64,88.9z"/>
		
			<linearGradient id="SVGID_00000166635608111403071410000006016915778308535962_" gradientUnits="userSpaceOnUse" x1="72.2006" y1="-1858.9771" x2="79.6587" y2="-1858.9771" gradientTransform="matrix(1 0 0 -1 0 -1784.6453)">
			<stop  offset="0.5128" style="stop-color:#B3C8E7"/>
			<stop  offset="1" style="stop-color:#ADCAEA"/>
		</linearGradient>
		<path style="fill:url(#SVGID_00000166635608111403071410000006016915778308535962_);" d="M73.4,71.7c-1.5,1.5-1.5,3.8-0.1,5.2
			s3.8,1.5,5.2,0.1c1.5-1.5,1.5-3.8,0.1-5.2C77.2,70.3,74.8,70.3,73.4,71.7z M77.4,75.9c-0.9,0.8-2.2,0.8-3.1-0.1
			c-0.8-0.9-0.8-2.2,0.1-3.1c0.9-0.8,2.2-0.8,3.1,0.1C78.3,73.8,78.3,75.1,77.4,75.9z"/>
	</g>
</g>
</svg>
