<?xml version="1.0" encoding="utf-8"?>
<!-- Generator: Adobe Illustrator 24.1.2, SVG Export Plug-In . SVG Version: 6.00 Build 0)  -->
<svg version="1.1" id="Camada_1" xmlns="http://www.w3.org/2000/svg" xmlns:xlink="http://www.w3.org/1999/xlink" x="0px" y="0px"
	 viewBox="0 0 376 99" style="enable-background:new 0 0 376 99;" xml:space="preserve">
<style type="text/css">
	.st0{clip-path:url(#SVGID_4_);fill:none;stroke:#858585;stroke-width:0.5;}
	.st1{fill:none;stroke:#858585;stroke-width:0.5;}
	.st2{clip-path:url(#SVGID_6_);fill:#848484;}
	.st3{clip-path:url(#SVGID_6_);fill:#5B87DA;}
	.st4{clip-path:url(#SVGID_8_);fill:#848484;}
	.st5{clip-path:url(#SVGID_8_);fill:#5B87DA;}
	.st6{clip-path:url(#SVGID_10_);fill:#848484;}
	.st7{clip-path:url(#SVGID_10_);fill:#5B87DA;}
</style>
<g>
	<defs>
		<rect id="SVGID_7_" x="-426.5" y="65.9" width="342.2" height="77"/>
	</defs>
	<clipPath id="SVGID_2_">
		<use xlink:href="#SVGID_7_"  style="overflow:visible;"/>
	</clipPath>
</g>
<g>
	<defs>
		<rect id="SVGID_9_" x="15.5" y="11" width="342.2" height="77"/>
	</defs>
	<clipPath id="SVGID_4_">
		<use xlink:href="#SVGID_9_"  style="overflow:visible;"/>
	</clipPath>
	<path style="clip-path:url(#SVGID_4_);fill:#5B87DA;" d="M47.3,45.8c20-25.9,37.6-27.7,48.2-12.5c-2.2-10.1-11.2-17.7-22-17.7
		c-7.3,0-13.8,3.5-18,8.9c-4.1-5.4-10.6-8.9-18-8.9c-10.9,0-20,7.7-22.1,18C23.2,26.2,34.6,32.9,47.3,45.8"/>
	<path style="clip-path:url(#SVGID_4_);fill:#5B87DA;" d="M48,55.8C30,41.4,15.7,44,20.5,54.7C27,69.4,41.2,79.4,55.6,85.2
		c13.7-5.6,26.1-15.5,33.9-28.6c1.9-3.5,2.2-6.5,2.3-8C91.2,31.6,62.6,35.9,48,55.8"/>
	<path style="clip-path:url(#SVGID_4_);fill:#848484;" d="M123,40.8h-3c-0.4,0-0.8,0.4-0.8,0.8V48h-6.8v-6.4c0-0.4-0.4-0.8-0.8-0.8
		h-3c-0.4,0-0.8,0.4-0.8,0.8V59c0,0.4,0.4,0.8,0.8,0.8h3c0.4,0,0.8-0.4,0.8-0.8v-6.5h6.8V59c0,0.4,0.4,0.8,0.8,0.8h3
		c0.4,0,0.8-0.4,0.8-0.8V41.6C123.8,41.1,123.4,40.8,123,40.8"/>
	<path style="clip-path:url(#SVGID_4_);fill:#848484;" d="M143,43.4c-0.9-0.9-1.9-1.6-3.1-2.1c-1.2-0.5-2.5-0.8-4-0.8
		c-1.4,0-2.8,0.3-4,0.8c-1.2,0.5-2.3,1.2-3.1,2.1c-0.9,0.9-1.6,1.9-2.1,3.1c-0.5,1.2-0.7,2.4-0.7,3.8c0,1.3,0.2,2.6,0.7,3.8
		c0.5,1.2,1.2,2.2,2,3.1c0.9,0.9,1.9,1.6,3.1,2.1c1.2,0.5,2.5,0.8,4,0.8s2.8-0.3,4-0.8c1.2-0.5,2.2-1.2,3.1-2.1
		c0.9-0.9,1.6-1.9,2.1-3.1c0.5-1.2,0.7-2.4,0.7-3.8c0-1.3-0.2-2.6-0.7-3.8C144.6,45.3,143.9,44.2,143,43.4 M133.9,55.2
		c-0.6-0.3-1.2-0.7-1.6-1.1c-0.4-0.5-0.8-1.1-1.1-1.7c-0.3-0.7-0.4-1.4-0.4-2.2c0-0.7,0.1-1.4,0.4-2.1c0.3-0.6,0.6-1.2,1-1.7
		c0.4-0.5,1-0.9,1.6-1.1c0.6-0.3,1.3-0.4,2-0.4c0.7,0,1.4,0.1,2,0.4c0.6,0.3,1.2,0.7,1.6,1.1c0.4,0.5,0.8,1.1,1,1.7
		c0.3,0.7,0.4,1.4,0.4,2.2c0,0.7-0.1,1.4-0.4,2.1c-0.3,0.6-0.6,1.2-1,1.7c-0.4,0.5-1,0.9-1.6,1.1C136.8,55.8,135.1,55.8,133.9,55.2"
		/>
	<path style="clip-path:url(#SVGID_4_);fill:#848484;" d="M160.4,50.1c-0.5-0.5-1.2-0.9-2-1.2c-0.7-0.3-1.6-0.6-2.5-0.8
		c-0.8-0.2-1.5-0.4-2-0.6c-0.5-0.2-0.8-0.3-1.1-0.5c-0.2-0.1-0.3-0.2-0.4-0.4c-0.1-0.2-0.1-0.3-0.1-0.6c0-0.3,0.1-0.6,0.4-0.9
		c0.4-0.3,0.9-0.4,1.6-0.4c0.7,0,1.4,0.1,2.1,0.4c0.7,0.3,1.5,0.7,2.2,1.2c0.2,0.1,0.4,0.2,0.6,0.1c0.2,0,0.4-0.1,0.5-0.3l1.6-2.3
		c0.2-0.3,0.2-0.8-0.2-1.1c-1-0.8-2-1.4-3.1-1.8c-1.1-0.4-2.4-0.6-3.7-0.6c-0.9,0-1.8,0.1-2.6,0.4c-0.8,0.3-1.5,0.7-2.1,1.2
		c-0.6,0.5-1.1,1.1-1.4,1.9c-0.3,0.7-0.5,1.5-0.5,2.4c0,0.9,0.2,1.7,0.5,2.4c0.3,0.7,0.8,1.3,1.4,1.7c0.5,0.4,1.2,0.8,2,1.1
		c0.8,0.3,1.6,0.5,2.6,0.8c0.8,0.2,1.4,0.4,1.9,0.5c0.4,0.2,0.8,0.3,1,0.5c0.2,0.1,0.3,0.3,0.3,0.4c0.1,0.1,0.1,0.3,0.1,0.6
		c0,0.4-0.2,0.7-0.5,0.9c-0.4,0.3-1,0.4-1.8,0.4c-1,0-1.9-0.2-2.6-0.5c-0.8-0.4-1.6-0.9-2.4-1.5c-0.2-0.1-0.4-0.2-0.6-0.2
		c-0.2,0-0.4,0.1-0.5,0.3l-1.8,2.2c-0.3,0.3-0.2,0.8,0.1,1.1c1.1,1,2.3,1.8,3.7,2.3c1.3,0.5,2.7,0.7,4.1,0.7c1,0,1.9-0.1,2.7-0.4
		c0.9-0.3,1.6-0.7,2.2-1.2c0.6-0.5,1.1-1.2,1.5-1.9c0.4-0.8,0.5-1.6,0.5-2.6c0-0.8-0.1-1.6-0.4-2.2C161.4,51.1,161,50.6,160.4,50.1"
		/>
	<path style="clip-path:url(#SVGID_4_);fill:#848484;" d="M177.7,42.6c-0.6-0.6-1.5-1-2.4-1.3c-0.9-0.3-1.9-0.4-3-0.4h-6.9
		c-0.4,0-0.8,0.3-0.8,0.8V59c0,0.4,0.3,0.8,0.8,0.8h3c0.4,0,0.8-0.4,0.8-0.8v-4.8h2.7c1,0,2-0.1,2.9-0.4c0.9-0.3,1.8-0.7,2.5-1.3
		c0.7-0.6,1.3-1.3,1.7-2.1c0.4-0.8,0.6-1.8,0.6-3c0-1-0.2-1.9-0.5-2.7C178.9,43.9,178.4,43.2,177.7,42.6 M169.3,45.1h2.8
		c1,0,1.7,0.2,2.3,0.6c0.5,0.4,0.7,0.9,0.7,1.8c0,0.7-0.2,1.2-0.7,1.7c-0.5,0.5-1.3,0.7-2.2,0.7h-2.8V45.1z"/>
	<path style="clip-path:url(#SVGID_4_);fill:#848484;" d="M186.3,40.8h-3c-0.4,0-0.8,0.4-0.8,0.8V59c0,0.4,0.4,0.8,0.8,0.8h3
		c0.4,0,0.8-0.4,0.8-0.8V41.6C187.1,41.1,186.7,40.8,186.3,40.8"/>
	<path style="clip-path:url(#SVGID_4_);fill:#848484;" d="M205.4,44.4v-2.8c0-0.4-0.3-0.8-0.8-0.8h-14.1c-0.4,0-0.8,0.3-0.8,0.8v2.8
		c0,0.4,0.4,0.8,0.8,0.8h4.7V59c0,0.4,0.4,0.8,0.8,0.8h3.1c0.4,0,0.8-0.4,0.8-0.8V45.2h4.7C205.1,45.2,205.4,44.8,205.4,44.4"/>
	<path style="clip-path:url(#SVGID_4_);fill:#848484;" d="M215.3,41.1c-0.1-0.3-0.4-0.5-0.7-0.5h-2.8c-0.3,0-0.6,0.2-0.7,0.5
		l-7.7,17.5c-0.1,0.2-0.1,0.5,0.1,0.7c0.1,0.2,0.4,0.4,0.7,0.4h3.1c0.3,0,0.6-0.2,0.7-0.5l1.6-3.7h7.2l1.6,3.7
		c0.1,0.3,0.4,0.5,0.7,0.5h3.2c0.3,0,0.5-0.1,0.7-0.4c0.1-0.2,0.2-0.5,0.1-0.7L215.3,41.1z M215.4,51.7h-4.6l2.3-5.3L215.4,51.7z"/>
	<path style="clip-path:url(#SVGID_4_);fill:#848484;" d="M266.7,40.8h-3.3c-0.3,0-0.5,0.1-0.7,0.4l-4.6,7.2l-4.6-7.2
		c-0.1-0.2-0.4-0.4-0.7-0.4h-3.3c-0.4,0-0.8,0.4-0.8,0.8V59c0,0.4,0.4,0.8,0.8,0.8h3c0.4,0,0.8-0.4,0.8-0.8v-9.8l4,6
		c0.1,0.2,0.4,0.3,0.7,0.3h0.1c0.3,0,0.5-0.1,0.7-0.3l4.1-6.1V59c0,0.4,0.4,0.8,0.8,0.8h3c0.4,0,0.8-0.4,0.8-0.8V41.6
		C267.5,41.1,267.1,40.8,266.7,40.8"/>
	<path style="clip-path:url(#SVGID_4_);fill:#848484;" d="M286.6,43.4c-0.9-0.9-1.9-1.6-3.1-2.1c-1.2-0.5-2.5-0.8-4-0.8
		c-1.4,0-2.8,0.3-4,0.8c-1.2,0.5-2.3,1.2-3.1,2.1c-0.9,0.9-1.6,1.9-2.1,3.1c-0.5,1.2-0.7,2.4-0.7,3.8c0,1.3,0.2,2.6,0.7,3.8
		c0.5,1.2,1.2,2.2,2,3.1c0.9,0.9,1.9,1.6,3.1,2.1c1.2,0.5,2.5,0.8,4,0.8c1.4,0,2.8-0.3,4-0.8c1.2-0.5,2.2-1.2,3.1-2.1
		c0.9-0.9,1.6-1.9,2.1-3.1c0.5-1.2,0.7-2.4,0.7-3.8c0-1.3-0.2-2.6-0.7-3.8C288.1,45.3,287.5,44.2,286.6,43.4 M277.5,55.2
		c-0.6-0.3-1.2-0.7-1.6-1.1c-0.4-0.5-0.8-1.1-1.1-1.7c-0.3-0.7-0.4-1.4-0.4-2.2c0-0.7,0.1-1.4,0.4-2.1c0.3-0.6,0.6-1.2,1-1.7
		c0.4-0.5,1-0.9,1.6-1.1c0.6-0.3,1.3-0.4,2-0.4c0.7,0,1.4,0.1,2,0.4c0.6,0.3,1.2,0.7,1.6,1.1c0.4,0.5,0.8,1.1,1.1,1.7
		c0.3,0.7,0.4,1.4,0.4,2.2c0,0.7-0.1,1.4-0.4,2.1c-0.3,0.6-0.6,1.2-1,1.7c-0.4,0.5-1,0.9-1.6,1.1C280.3,55.8,278.7,55.8,277.5,55.2"
		/>
	<path style="clip-path:url(#SVGID_4_);fill:#848484;" d="M303.6,52.8c0.3-0.1,0.6-0.3,0.8-0.4c0.6-0.3,1.1-0.8,1.5-1.3
		c0.4-0.5,0.8-1.1,1-1.7c0.2-0.7,0.4-1.4,0.4-2.2c0-0.9-0.1-1.7-0.4-2.4c-0.3-0.7-0.7-1.4-1.3-1.9c-0.6-0.6-1.4-1.1-2.4-1.5
		c-0.9-0.3-2-0.5-3.2-0.5h-7.8c-0.4,0-0.8,0.3-0.8,0.8V59c0,0.4,0.4,0.8,0.8,0.8h3c0.4,0,0.8-0.4,0.8-0.8v-5.3h2.6l4.1,5.7
		c0.1,0.2,0.4,0.3,0.6,0.3h3.6c0.3,0,0.6-0.2,0.7-0.4c0.1-0.3,0.1-0.6-0.1-0.8L303.6,52.8z M296.1,45.1h3.7c1,0,1.7,0.2,2.2,0.6
		c0.4,0.3,0.6,0.8,0.6,1.6c0,0.7-0.2,1.2-0.7,1.5c-0.5,0.4-1.2,0.6-2.1,0.6h-3.7V45.1z"/>
	<path style="clip-path:url(#SVGID_4_);fill:#848484;" d="M314.3,40.8h-3c-0.4,0-0.8,0.4-0.8,0.8V59c0,0.4,0.3,0.8,0.8,0.8h3
		c0.4,0,0.8-0.4,0.8-0.8V41.6C315.1,41.1,314.7,40.8,314.3,40.8"/>
	<path style="clip-path:url(#SVGID_4_);fill:#848484;" d="M353.3,40.8h-3c-0.4,0-0.8,0.4-0.8,0.8V48h-6.8v-6.4
		c0-0.4-0.4-0.8-0.8-0.8h-3c-0.4,0-0.8,0.4-0.8,0.8V59c0,0.4,0.4,0.8,0.8,0.8h3c0.4,0,0.8-0.4,0.8-0.8v-6.5h6.8V59
		c0,0.4,0.4,0.8,0.8,0.8h3c0.4,0,0.8-0.4,0.8-0.8V41.6C354.1,41.1,353.7,40.8,353.3,40.8"/>
	<path style="clip-path:url(#SVGID_4_);fill:#848484;" d="M328.7,41.1c-0.1-0.3-0.4-0.5-0.7-0.5h-2.8c-0.3,0-0.6,0.2-0.7,0.5
		l-7.7,17.5c-0.1,0.2-0.1,0.5,0.1,0.7c0.1,0.2,0.4,0.4,0.7,0.4h3.1c0.3,0,0.6-0.2,0.7-0.5l1.6-3.7h7.2l1.6,3.7
		c0.1,0.3,0.4,0.5,0.7,0.5h3.2c0.3,0,0.5-0.1,0.7-0.4c0.1-0.2,0.2-0.5,0.1-0.7L328.7,41.1z M328.9,51.7h-4.6l2.3-5.3L328.9,51.7z"/>
	<path style="clip-path:url(#SVGID_4_);fill:#848484;" d="M238.3,55.4h-8.4V41.6c0-0.4-0.4-0.8-0.8-0.8h-3c-0.4,0-0.8,0.4-0.8,0.8
		V59c0,0.4,0.4,0.8,0.8,0.8h12.2c0.4,0,0.8-0.4,0.8-0.8v-2.8C239,55.8,238.7,55.4,238.3,55.4"/>
</g>
</svg>
