<?xml version="1.0" encoding="utf-8"?>
<!-- Generator: Adobe Illustrator 26.2.1, SVG Export Plug-In . SVG Version: 6.00 Build 0)  -->
<svg version="1.1" id="Layer_1" xmlns="http://www.w3.org/2000/svg" xmlns:xlink="http://www.w3.org/1999/xlink" x="0px" y="0px"
	 viewBox="0 0 122.9 117.3" style="enable-background:new 0 0 122.9 117.3;" xml:space="preserve">
<style type="text/css">
	.st0{fill-rule:evenodd;clip-rule:evenodd;fill:#FFFFFF;}
</style>
<path class="st0" d="M48.9,9.8c-1.4-3.2-5.1-4.6-8.3-3.2s-4.6,5.1-3.2,8.3c0.9,2,2.8,3.4,5,3.7l0.7,1.4c-4.1,3.1-7.1,7.4-8.5,12.4
	l-7.4-3.9c0.4-4.7-3-8.8-7.7-9.3s-8.8,3-9.3,7.7s3,8.8,7.7,9.3c2.2,0.2,4.4-0.5,6.1-1.9l3,1.6c-1.1,0.7-2.1,1.5-3,2.4
	c-2.7,2.7-4.8,5.9-6.1,9.6c-0.2,0.6-0.4,1.3-0.6,1.9c-0.6-0.2-1.3-0.3-2-0.3c-3.5-0.1-6.4,2.6-6.5,6.1c-0.1,3.5,2.6,6.4,6.1,6.5
	c0.9,0,1.7-0.1,2.5-0.4c1,3.1,2.7,5.9,5,8.2l-10.8,5.8c-3.2-1.3-6.9,0.3-8.1,3.5C2.4,82.3,4,86,7.2,87.3s6.9-0.3,8.1-3.5
	c0.3-0.9,0.5-1.8,0.4-2.7l6-3.3c-0.1,1.1-0.2,2.2,0,3.2c0.2,2.1,0.9,4.2,2.2,5.9c1.3,1.8,3.1,3.1,5.2,3.7c0.7,0.2,1.4,0.3,2.1,0.4
	l-1.2,1.7c-4.6-1-9.2,1.9-10.2,6.5c-1,4.6,1.9,9.2,6.5,10.2c4.6,1,9.2-1.9,10.2-6.5c0.5-2.2,0.1-4.4-1-6.3l2.2-3.2
	c0.5,1.4,1.2,2.7,2.2,3.8c1.4,1.6,3.2,2.7,5.2,3.4c2,0.7,4,1,6.1,1c1.3,0,2.7-0.2,4-0.5v0.2c-3.4,1.7-4.7,5.7-3.1,9.1
	c1.7,3.4,5.7,4.7,9.1,3.1c3.4-1.7,4.7-5.7,3.1-9.1c-0.5-1.1-1.4-2-2.4-2.7l0.4-3.2c1.5,0.4,2.9,0.7,4.5,0.9
	c5.2,0.6,10.4-0.6,14.9-3.3c0.8-0.5,1.6-1,2.3-1.6l1.4,2c-0.4,0.7-0.7,1.5-0.9,2.2c-1.2,4.5,1.5,9.2,6,10.4c4.5,1.2,9.2-1.5,10.4-6
	c1.2-4.5-1.5-9.2-6-10.4c-1.3-0.4-2.7-0.4-4.1-0.1l-2.1-2.9c1.1-1.4,1.9-3,2.7-4.6c0.7-1.7,1.3-3.4,1.6-5.2c2.3-0.6,4.4-1.8,6.2-3.3
	l8.2,2.9c0.8,3.4,4.2,5.4,7.6,4.6c3.4-0.8,5.4-4.2,4.6-7.6c-0.8-3.4-4.2-5.4-7.6-4.6c-0.9,0.2-1.8,0.7-2.5,1.3l-5.9-2.1
	c1-1.7,1.7-3.6,2.1-5.5c0.6-2.6,0.8-5.3,0.4-8c-0.6-4.7-2.7-9.1-5.9-12.6l2.9-1.4c2.9,2.3,7.2,1.8,9.5-1.1c2.3-2.9,1.8-7.2-1.1-9.5
	c-2.9-2.3-7.2-1.8-9.5,1.1c-0.8,1-1.2,2.1-1.4,3.3l-5.3,2.6c0.7-3.5,0.3-7.1-1.1-10.3c-0.3-0.7-0.7-1.4-1.1-2l5.6-5.8
	c4.4,1.6,9.3-0.6,11-5c1.6-4.4-0.6-9.3-5-11s-9.3,0.6-11,5c-0.8,2.1-0.7,4.4,0.2,6.4l-5.7,6c-2.3-1.2-4.9-1.7-7.4-1.7
	c-2.4,0-4.7,0.6-6.8,1.7c-0.8-0.9-1.7-1.7-2.6-2.5l0.7-5.5c3.2-1.3,4.7-5,3.4-8.2c-1.3-3.2-5-4.7-8.2-3.4c-3.2,1.3-4.7,5-3.4,8.2
	c0.3,0.8,0.9,1.6,1.6,2.2l-0.4,3.1c-1.2-0.4-2.4-0.8-3.7-1c-3-0.6-6.1-0.6-9.1,0c-1,0.2-2,0.5-3,0.8l-0.6-1.2
	C49.6,13.9,49.7,11.7,48.9,9.8L48.9,9.8z M85.2,53.8c2,0.6,3.2,2.7,2.7,4.7c-0.6,2-2.7,3.2-4.7,2.7c-2-0.6-3.2-2.6-2.7-4.7
	C81,54.5,83.1,53.3,85.2,53.8C85.2,53.8,85.2,53.8,85.2,53.8z M68.2,42.9c3.2-0.7,6.3,1.4,7,4.6c0.7,3.2-1.4,6.3-4.6,7
	c-3.2,0.7-6.3-1.4-7-4.6C63,46.6,65,43.5,68.2,42.9z M51.7,34.2c2.2-0.5,4.4,1,4.9,3.2c0.5,2.2-1,4.4-3.2,4.9
	c-2.2,0.5-4.4-1-4.9-3.2C48,36.9,49.4,34.7,51.7,34.2C51.7,34.3,51.7,34.2,51.7,34.2z M38.8,60.2c2.5,0.7,4,3.3,3.3,5.8
	c-0.7,2.5-3.3,4-5.8,3.3c-2.5-0.7-4-3.3-3.3-5.8C33.6,61,36.2,59.5,38.8,60.2C38.7,60.2,38.7,60.2,38.8,60.2z M55.6,52.7
	c3.4,0.9,5.5,4.4,4.6,7.8c-0.9,3.4-4.4,5.5-7.8,4.6c-3.4-0.9-5.5-4.4-4.6-7.8c0,0,0,0,0-0.1C48.7,53.9,52.2,51.8,55.6,52.7
	L55.6,52.7z M52.2,75.2c1.3,0.4,2.1,1.7,1.7,3c-0.4,1.3-1.7,2.1-3,1.7c-1.3-0.4-2.1-1.7-1.7-3C49.5,75.7,50.9,74.9,52.2,75.2z
	 M72.6,71c2,0.6,3.2,2.7,2.7,4.7c-0.6,2-2.7,3.2-4.7,2.7c-2-0.6-3.2-2.6-2.7-4.7c0.5-2,2.6-3.3,4.6-2.8C72.5,70.9,72.6,70.9,72.6,71
	z M56.5,95.6l-0.3-0.3c-0.7-0.7-1.4-1.5-1.9-2.3c-0.6-1.2-0.1-2.6,1.1-3.1c0.9-0.5,2.1-0.2,2.8,0.6c0.4,0.5,0.8,1,1.2,1.5
	c0.5,0.5,1,0.9,1.6,1.3c2,0.9,4.1,1.4,6.3,1.7c4.2,0.5,8.4-0.5,12-2.7c3.4-2.1,6.1-5.2,7.7-8.9c0.8-1.7,1.3-3.5,1.5-5.4
	c0-0.1,0-0.1,0-0.2c0.1-0.9,0.1-1.8,0-2.6c-0.1-0.8-0.2-1.6-0.5-2.4c-0.4-1.2,0.3-2.5,1.5-2.9c1.2-0.4,2.5,0.3,2.9,1.5
	c0.3,1.1,0.6,2.2,0.7,3.4v0.2c2.3-1.1,4.2-2.8,5.6-4.9c1.1-1.7,1.9-3.5,2.3-5.5c0.5-2.1,0.6-4.2,0.3-6.3
	c-0.7-5.1-3.7-10.4-10.1-14.7c-0.8-0.5-1.2-1.5-1-2.5c0.9-4,0.6-7.1-0.4-9.4c-0.8-1.7-2.1-3.2-3.8-4.1c-1.7-0.9-3.5-1.3-5.4-1.3
	c-2.1,0-4.2,0.7-5.8,2l0,0c-0.2,0.2-0.4,0.3-0.6,0.4c-0.8,0.5-1.5,1.2-2,2c-0.7,1-1.2,2.2-1.4,3.4c-0.2,1.3-1.4,2.1-2.7,1.9
	c-1.3-0.2-2.1-1.4-1.9-2.7c0.3-1.9,1.1-3.7,2.1-5.2c0.5-0.7,1-1.4,1.6-2c-2.6-2.7-6-4.6-9.7-5.2c-2.4-0.5-4.9-0.5-7.3,0
	c-2.4,0.5-4.7,1.4-6.7,2.8c-3.7,2.6-6.6,6.7-7.7,12.7v0.1c-0.1,0.8-0.2,1.7-0.2,2.5c0,0.8,0.1,1.6,0.3,2.4c0.3,1.3-0.4,2.5-1.7,2.9
	c-1.3,0.3-2.5-0.4-2.9-1.7l0,0c-0.3-1.2-0.5-2.4-0.5-3.6c0-0.2,0-0.5,0-0.7c-2.4,0.5-4.6,1.7-6.4,3.5c-2.2,2.1-3.9,4.8-4.9,7.7
	c-1.1,2.9-1.3,6.1-0.8,9.2c0.8,4.1,3.4,7.7,7,9.9c0.1,0.1,0.2,0.1,0.3,0.2c1,0.8,1.2,2.3,0.4,3.3c-2,2.4-3,5.4-2.8,8.5
	c0.1,1.3,0.6,2.5,1.3,3.6c0.7,0.9,1.7,1.6,2.8,2c2,0.6,4.9,0.3,8.4-1.5c0.5-0.3,1.2-0.4,1.7-0.2c1.2,0.4,2,1.7,1.6,2.9c0,0,0,0,0,0
	c-0.9,3-0.3,5.2,1.1,6.8c0.9,1,2.1,1.7,3.4,2.2c1.4,0.5,2.9,0.8,4.4,0.8l0,0C53.1,97,54.9,96.5,56.5,95.6L56.5,95.6z"/>
</svg>
