<?xml version="1.0" encoding="utf-8"?>
<!-- Generator: Adobe Illustrator 26.2.1, SVG Export Plug-In . SVG Version: 6.00 Build 0)  -->
<svg version="1.1" id="Layer_1" xmlns="http://www.w3.org/2000/svg" xmlns:xlink="http://www.w3.org/1999/xlink" x="0px" y="0px"
	 viewBox="0 0 122.9 117.3" style="enable-background:new 0 0 122.9 117.3;" xml:space="preserve">
<style type="text/css">
	.st0{fill-rule:evenodd;clip-rule:evenodd;fill:#FFFFFF;}
</style>
<path class="st0" d="M48.6,5.1H74c0.7,0,1.4,0.4,1.7,1.1l17.8,30.3c0.2,0.4,0.3,0.9,0.2,1.4l-16.4,73.1c-0.2,0.9-0.9,1.5-1.8,1.5
	H47.1c-0.9,0-1.7-0.7-1.8-1.6l-16-73c-0.1-0.5,0-1,0.3-1.4L47,6C47.3,5.4,47.9,5.1,48.6,5.1z M52.8,17h17.1c0.2,0,0.3,0.1,0.4,0.3
	l12,20.6c0.1,0.1,0.1,0.2,0.1,0.3l-12.6,64.6c0,0.2-0.2,0.4-0.5,0.4H53.4c-0.2,0-0.4-0.2-0.5-0.4L40.6,38.2c0-0.1,0-0.2,0.1-0.3
	l11.7-20.6C52.5,17.1,52.6,17,52.8,17L52.8,17z M72.9,8.8H49.7L33,37.6l15.6,70.9H74l15.9-70.9L72.9,8.8z M59.6,28.5h3.7
	c0.1,0,0.3,0.1,0.3,0.3v5.8h6.2c0.1,0,0.3,0.1,0.3,0.3c0,0,0,0,0,0v3.7c0,0.1-0.1,0.3-0.3,0.3h-6.2v16c0,0.1-0.1,0.3-0.3,0.3h-3.7
	c-0.1,0-0.3-0.1-0.3-0.3c0,0,0,0,0,0v-16h-6.2c-0.1,0-0.3-0.1-0.3-0.3v-3.7c0-0.1,0.1-0.3,0.3-0.3h6.2v-5.8
	C59.3,28.6,59.4,28.5,59.6,28.5C59.6,28.5,59.6,28.5,59.6,28.5z"/>
</svg>
