<?xml version="1.0" encoding="utf-8"?>
<!-- Generator: Adobe Illustrator 26.2.1, SVG Export Plug-In . SVG Version: 6.00 Build 0)  -->
<svg version="1.1" id="Layer_1" xmlns="http://www.w3.org/2000/svg" xmlns:xlink="http://www.w3.org/1999/xlink" x="0px" y="0px"
	 viewBox="0 0 122.9 117.3" style="enable-background:new 0 0 122.9 117.3;" xml:space="preserve">
<style type="text/css">
	.st0{fill:#FFFFFF;}
</style>
<path class="st0" d="M21,98.7C13.5,91.1,8.9,80.7,8.9,69.3S13.5,47.4,21,39.9c7.5-7.5,17.9-12.2,29.4-12.2c9.2,0,17.7,3,24.6,8.1
	l16.3-16.3H79.7c-3.7,0-6.8-3-6.8-6.8c0-3.7,3-6.8,6.8-6.8h27.5c3.7,0,6.8,3,6.8,6.8v28.4c0,3.7-3,6.8-6.8,6.8c-3.7,0-6.8-3-6.8-6.8
	V29.5l-16,16c4.7,6.7,7.5,14.9,7.5,23.8c0,11.5-4.7,21.9-12.2,29.4c-6.2,6.2-14,12.8-30.1,12.8C35.3,111.4,26.9,104.5,21,98.7z
	 M70.3,49.4c-5.1-5.1-12.1-8.2-19.8-8.2c-7.7,0-14.8,3.1-19.8,8.2c-5.1,5.1-8.2,12.1-8.2,19.8s3.1,14.8,8.2,19.8
	c5.1,5.1,12.1,8.2,19.8,8.2c7.7,0,14.8-3.1,19.8-8.2c5.1-5.1,8.2-12.1,8.2-19.8S75.3,54.5,70.3,49.4L70.3,49.4z"/>
</svg>
