<?xml version="1.0" encoding="utf-8"?>
<!-- Generator: Adobe Illustrator 26.2.1, SVG Export Plug-In . SVG Version: 6.00 Build 0)  -->
<svg version="1.1" id="Layer_1" xmlns="http://www.w3.org/2000/svg" xmlns:xlink="http://www.w3.org/1999/xlink" x="0px" y="0px"
	 viewBox="0 0 122.9 117.3" style="enable-background:new 0 0 122.9 117.3;" xml:space="preserve">
<style type="text/css">
	.st0{fill-rule:evenodd;clip-rule:evenodd;fill:#FFFFFF;}
</style>
<g>
	<path class="st0" d="M95.5,79.2V66.5c0.5-2.3,1.6-3.5,2.7-3.7C102.2,62.1,101.5,78.3,95.5,79.2L95.5,79.2z M91.5,64l-5.1,0.6
		c0.3,0.9,0.4,1.9,0.4,3c0,3.1-1.2,5.9-3.3,7.9c-2,2-4.8,3.3-7.9,3.3c-3.1,0-5.9-1.2-7.9-3.3c-2-2-3.3-4.8-3.3-7.9
		c0-0.3,0-0.6,0-0.9c0-0.1-0.2-0.2-0.3-0.2c-1.1-0.9-2.2-1.3-3.2-1.3c-1,0.1-2,0.6-2.9,1.5h0c-0.1,0.1-0.1,0.1-0.2,0.2
		c0,0-0.1,0.1-0.1,0.1c0,0.2,0,0.4,0,0.5c0,3.1-1.2,5.9-3.3,7.9c-2,2-4.8,3.3-7.9,3.3c-3.1,0-5.9-1.2-7.9-3.3
		c-2.1-2-3.3-4.8-3.3-7.9c0-1,0.1-2,0.4-2.9l-5.2-0.6v21.5c1.6,7.7,3.6,8.4,8.5,13.2l8.6,8.4c1.6,1.3,3.3,2,5.2,2.5
		c3.3,0.8,14.2,1,17.3,0c1.9-0.6,3.6-1.7,5.2-3.4l6.2-6.1c6-5.8,10.1-8.4,9.7-18L91.5,64L91.5,64z M46.7,55.6c3.1,0,5.9,1.2,7.9,3.3
		c1.2,1.2,2.2,2.7,2.7,4.4c1.1-0.8,2.3-1.2,3.6-1.3c1.4-0.1,2.8,0.3,4.2,1.2c0.6-1.6,1.5-3.1,2.7-4.3c2-2,4.8-3.3,7.9-3.3
		c3.1,0,5.9,1.2,7.9,3.3c0.8,0.8,1.4,1.6,1.9,2.6l6.1-0.7v-10c-20.4-14.6-33-26.7-50-15.9c-6.1,3.8-7.9,11.7-10.7,16.1v9.8
		c0.1,0,0.1,0,0.2,0l5.9,0.7c0.5-1,1.2-1.8,1.9-2.6C40.9,56.9,43.7,55.6,46.7,55.6L46.7,55.6z M47.9,48.3c0.9,0,1.6,0.6,1.6,1.5
		c0,0.9-0.6,1.6-1.5,1.6c-2.4,0.1-4.4,0.6-6.1,1.4c-1.7,0.8-3,1.9-4.1,3.4c-0.5,0.7-1.5,0.8-2.2,0.3c-0.7-0.5-0.8-1.5-0.3-2.2
		c1.4-1.8,3.1-3.3,5.2-4.3C42.7,49,45.1,48.4,47.9,48.3L47.9,48.3z M76.2,51.1c-0.9,0-1.5-0.7-1.5-1.6c0-0.9,0.7-1.5,1.6-1.5
		c2.6,0,4.9,0.5,7,1.5c2.1,1,4,2.5,5.5,4.5c0.5,0.7,0.4,1.6-0.3,2.2c-0.7,0.5-1.6,0.4-2.2-0.3c-1.3-1.6-2.7-2.8-4.4-3.6
		C80.2,51.5,78.3,51.1,76.2,51.1L76.2,51.1z M58.1,78.3c-0.5-0.5-0.6-1.2-0.2-1.8c0.5-0.5,1.2-0.6,1.8-0.2c0.6,0.5,1.2,0.8,1.8,0.8
		c0.6,0,1.2-0.3,1.9-0.8c0.5-0.4,1.3-0.4,1.8,0.2c0.4,0.5,0.4,1.3-0.2,1.8c-1.2,1-2.3,1.4-3.5,1.4C60.3,79.7,59.1,79.2,58.1,78.3
		L58.1,78.3z M54.1,99c-0.6-0.3-0.9-1.1-0.5-1.8c0.3-0.6,1.1-0.9,1.8-0.5c2,1.1,4.1,1.6,6,1.6s4-0.5,5.9-1.6
		c0.6-0.4,1.4-0.1,1.8,0.5c0.4,0.6,0.1,1.4-0.5,1.8c-2.4,1.3-4.8,2-7.2,2C58.9,100.9,56.5,100.2,54.1,99L54.1,99z M27.3,79.2V66.5
		c-0.5-2.3-1.6-3.5-2.7-3.7C20.7,62.1,21.3,78.3,27.3,79.2L27.3,79.2z M27.7,81.4c-0.2,0-0.5,0-0.7,0c-4.2-0.6-6.4-5.7-6.9-10.6
		c-0.2-1.3-0.2-2.7-0.1-3.9c0.1-1.3,0.3-2.5,0.7-3.4c0.8-2.1,2.3-3.2,4.3-2.9c1,0.2,1.9,0.7,2.7,1.6v-1.7l-1.7-1
		c-0.5-4.6-1.7-10.3-2.4-15.5c-0.1-0.8-0.2-1.7-0.2-2.5c-1.8,0.4-3.3-1.3-3.6-6.1v-7.7c1.1-9.2,5.4-12.9,12.4-11.8
		C38.9,8.9,48.4,5,61.4,5.1c14.5-0.3,26.9,3.1,35.8,12.3c4.7,4.7,6.7,12,5.5,22.3c0.1,2-0.1,4-0.4,6.2c-0.7,4.7-1.5,9.6-1.8,13.3
		l-2.3,1.4c1.8-0.1,3.1,1,3.9,2.9c0.4,1,0.6,2.1,0.7,3.4c0.1,1.2,0.1,2.5-0.1,3.9c-0.5,4.9-2.8,10-6.9,10.6c-0.2,0-0.4,0-0.5,0V82
		c0,0,0,0.1,0,0.1c0.4,9.8-3.2,13.1-8.7,18.3c-0.7,0.6-1.4,1.3-2.1,2l-6.5,6.3c-1,1-2,1.8-3,2.5c-1.1,0.7-2.2,1.2-3.3,1.6
		c-1.7,0.6-5.3,0.8-8.9,0.8c-4.1,0-8.3-0.3-10.3-0.8c-1.1-0.3-2.2-0.6-3.2-1.1c-1-0.5-2.1-1.1-3-1.9c-0.1,0-0.1-0.1-0.2-0.1l0,0
		l-8.9-8.7c-0.8-0.8-1.5-1.5-2.2-2.1c-3.9-3.6-5.7-5.3-7.3-12.8c0-0.2,0-0.3,0-0.5h0V81.4L27.7,81.4z M61.2,87.2
		c1.4-1.4,4.9-3,6.5-1.6c2.9,2.6,5.6,8.3,10.5,7.6c2.3-0.3,4-3.7,1.4-5.1c4,0.2,3.4,5.8,0.4,7.3c-5.2,2.7-15.9,0.7-18.7-2.4
		c-2.8,3.1-13.5,5-18.7,2.4c-2.8-1.4-3.8-6.8,0.4-7.5c-2.4,1.2-1.2,4.9,1.2,5.3c5,0.8,7.8-5.1,10.7-7.6
		C56.4,84.4,59.8,85.5,61.2,87.2z"/>
</g>
</svg>
