<?xml version="1.0" encoding="utf-8"?>
<!-- Generator: Adobe Illustrator 26.2.1, SVG Export Plug-In . SVG Version: 6.00 Build 0)  -->
<svg version="1.1" id="Layer_1" xmlns="http://www.w3.org/2000/svg" xmlns:xlink="http://www.w3.org/1999/xlink" x="0px" y="0px"
	 viewBox="0 0 122.9 117.3" style="enable-background:new 0 0 122.9 117.3;" xml:space="preserve">
<style type="text/css">
	.st0{fill-rule:evenodd;clip-rule:evenodd;fill:#FFFFFF;}
</style>
<path class="st0" d="M47.1,18.6c-0.9-0.3-1.8,0.1-2.2,1s0.1,1.8,1,2.2c0.5,0.2,1.2,0.1,1.6-0.2l0.4,0.1c-0.2,1.4,0.1,2.7,0.7,3.9
	l-2.1,0.7c-0.8-1-2.2-1.1-3.2-0.3c-1,0.8-1.1,2.2-0.3,3.2s2.2,1.1,3.2,0.3c0.5-0.4,0.7-0.9,0.8-1.5l0.9-0.3c-0.1,0.3-0.1,0.7-0.1,1
	c0,1,0.2,2,0.7,2.9c0.1,0.2,0.2,0.3,0.3,0.5c-0.2,0.1-0.3,0.2-0.4,0.3c-0.7,0.6-0.7,1.7-0.1,2.4c0.6,0.7,1.7,0.7,2.4,0.1
	c0.2-0.2,0.3-0.3,0.4-0.6c0.8,0.4,1.6,0.6,2.5,0.6l-0.9,3.1c-0.8,0.4-1.2,1.4-0.9,2.2C52,41,53,41.4,53.8,41
	c0.8-0.4,1.2-1.4,0.9-2.2c-0.1-0.2-0.2-0.4-0.4-0.6l0.5-1.8c0.2,0.2,0.4,0.4,0.6,0.6c0.4,0.4,1,0.6,1.5,0.7c0.6,0.1,1.2,0,1.7-0.3
	c0.2-0.1,0.3-0.2,0.5-0.3l0.1,0.6c-1.1,0.7-1.4,2.1-0.7,3.1c0.7,1.1,2.1,1.4,3.1,0.7c1.1-0.7,1.4-2.1,0.7-3.1
	c-0.3-0.5-0.8-0.9-1.4-1l-0.2-1c0.4,0.2,0.7,0.3,1.1,0.3c0.6,0,1.1-0.1,1.6-0.3c0.5-0.2,1-0.6,1.3-1c0.3-0.3,0.5-0.5,0.7-0.8l0,0
	c-0.3,0.9,0.2,2,1.1,2.3c0.9,0.3,2-0.2,2.3-1.1s-0.2-2-1.1-2.3c-0.3-0.1-0.6-0.1-1-0.1l-0.5-0.7c0.4-0.2,0.7-0.4,1-0.7
	c1.1-0.9,1.9-2.1,2.2-3.4c0.1-0.2,0.1-0.5,0.1-0.7l0.6,0.1c0.1,0.2,0.1,0.4,0.2,0.6c0.6,1.1,2,1.5,3.1,0.8c1.1-0.6,1.5-2,0.8-3.1
	c-0.6-1.1-2-1.5-3.1-0.8c-0.3,0.2-0.6,0.4-0.8,0.7l-1-0.1c-0.1-0.5-0.2-0.9-0.4-1.4c-0.2-0.5-0.4-0.9-0.7-1.3
	c0.3-0.5,0.5-1.2,0.5-1.8l2.1-1c0.8,0.5,1.8,0.2,2.3-0.6c0.5-0.8,0.2-1.8-0.6-2.3c-0.8-0.5-1.8-0.2-2.3,0.6
	c-0.1,0.2-0.2,0.5-0.2,0.7l-1.5,0.7c-0.1-0.5-0.4-1-0.6-1.4c-0.4-0.6-0.9-1.2-1.4-1.6c-1-0.8-2.2-1.2-3.5-1.3l0.3-0.8
	c1-0.1,1.7-1,1.6-2c-0.1-1-1-1.7-2-1.6s-1.7,1-1.6,2c0,0.3,0.2,0.6,0.4,0.9l-0.5,1.5c-0.5-0.8-1.3-1.4-2.1-1.7
	c-0.2-0.1-0.4-0.1-0.6-0.2l0-2.1c1.1-0.5,1.6-1.9,1.1-3c-0.5-1.1-1.9-1.6-3-1.1s-1.6,1.9-1.1,3c0.2,0.5,0.7,1,1.2,1.2l0.1,2.2
	c-0.7,0.2-1.2,0.6-1.7,1.1c-0.4,0.5-0.8,1-1,1.6c-0.3,0-0.6,0-1,0l-0.9-1.2c0.4-0.9,0-1.8-0.9-2.2c-0.9-0.4-1.8,0-2.2,0.9
	c-0.4,0.9,0,1.8,0.9,2.2c0.2,0.1,0.5,0.1,0.7,0.1l0.5,0.7c-0.3,0.1-0.6,0.3-0.9,0.5c-0.7,0.5-1.3,1-1.7,1.7
	c-0.2,0.2-0.3,0.5-0.4,0.7l-0.3-0.1C48,19.2,47.6,18.8,47.1,18.6L47.1,18.6z M62.2,20c0.5-0.3,1.1-0.1,1.4,0.4s0.1,1.1-0.4,1.4
	c-0.5,0.3-1.1,0.1-1.4-0.4C61.5,20.9,61.7,20.3,62.2,20C62.2,20,62.2,20,62.2,20z M56.9,21.2c0.5-0.7,1.5-0.9,2.2-0.4
	c0.7,0.5,0.9,1.5,0.4,2.2c-0.5,0.7-1.5,0.9-2.2,0.4C56.7,22.9,56.5,21.9,56.9,21.2z M52.2,22.7c0.3-0.5,1-0.6,1.5-0.3
	c0.5,0.3,0.6,1,0.3,1.5c-0.3,0.5-1,0.6-1.5,0.3C52,23.8,51.9,23.2,52.2,22.7C52.2,22.7,52.2,22.7,52.2,22.7z M54.7,30
	c0.6-0.3,1.4-0.1,1.7,0.5c0.3,0.6,0.1,1.4-0.5,1.7c-0.6,0.3-1.4,0.1-1.7-0.5C53.8,31.1,54,30.3,54.7,30C54.7,30,54.7,30,54.7,30z
	 M56.4,25.4c0.8-0.5,1.9-0.2,2.3,0.6c0.5,0.8,0.2,1.9-0.6,2.3c-0.8,0.5-1.9,0.2-2.3-0.6c0,0,0,0,0,0C55.3,26.9,55.6,25.9,56.4,25.4
	L56.4,25.4z M60,30.3c0.3-0.2,0.7-0.1,0.9,0.2s0.1,0.7-0.2,0.9c-0.3,0.2-0.7,0.1-0.9-0.2C59.6,30.9,59.7,30.5,60,30.3z M63.1,25.6
	c0.5-0.3,1.1-0.1,1.4,0.4c0.3,0.5,0.1,1.1-0.4,1.4c-0.5,0.3-1.1,0.1-1.4-0.4C62.4,26.5,62.6,25.9,63.1,25.6
	C63,25.6,63.1,25.6,63.1,25.6z M64.7,33.3l-0.1,0c-0.3,0-0.5,0-0.8-0.1c-0.3-0.1-0.5-0.5-0.4-0.8c0.1-0.3,0.3-0.4,0.6-0.4
	c0.2,0,0.3,0,0.5,0c0.2,0,0.4,0,0.5-0.1c0.5-0.2,1-0.5,1.5-0.9c0.9-0.7,1.5-1.7,1.7-2.8c0.3-1,0.2-2.1-0.2-3.1
	c-0.2-0.5-0.4-0.9-0.7-1.3c0,0,0,0,0,0c-0.1-0.2-0.3-0.3-0.5-0.5c-0.2-0.1-0.4-0.3-0.5-0.4c-0.3-0.2-0.4-0.5-0.3-0.8
	c0.2-0.3,0.5-0.4,0.8-0.3c0.3,0.1,0.5,0.3,0.8,0.5l0,0c0.2-0.6,0.3-1.3,0.1-2c-0.1-0.5-0.3-1-0.6-1.5c-0.3-0.5-0.7-0.9-1.1-1.3
	c-1.1-0.8-2.7-1.3-4.7-0.9c-0.3,0.1-0.5-0.1-0.7-0.3c-0.6-0.9-1.2-1.5-1.8-1.7c-0.5-0.2-1-0.2-1.5-0.1c-0.5,0.1-0.9,0.4-1.3,0.8
	c-0.4,0.4-0.7,0.9-0.7,1.5l0,0c0,0.1,0,0.1,0,0.2c-0.1,0.2-0.1,0.5,0,0.8c0.1,0.3,0.2,0.6,0.4,0.9c0.2,0.3,0.1,0.7-0.1,0.9
	c-0.3,0.2-0.7,0.1-0.9-0.1c-0.3-0.4-0.5-0.9-0.6-1.4c0-0.2-0.1-0.5-0.1-0.7c-1,0-2,0.3-2.8,0.8c-0.5,0.4-1,0.8-1.4,1.4
	c-0.4,0.5-0.6,1.2-0.7,1.8c-0.2,1.2,0,2.5,0.9,3.8l0,0c0.1,0.2,0.3,0.4,0.4,0.5c0.2,0.2,0.3,0.3,0.5,0.4c0.3,0.2,0.4,0.6,0.2,0.9
	c-0.2,0.3-0.6,0.4-0.9,0.2l0,0c-0.3-0.2-0.5-0.4-0.8-0.6c0,0-0.1-0.1-0.1-0.1C49.2,27.4,49,28,49,28.7c0,0.8,0.2,1.6,0.5,2.4
	c0.4,0.8,0.9,1.4,1.6,1.9c0.9,0.6,2.1,0.8,3.2,0.6c0,0,0.1,0,0.1,0c0.3,0,0.7,0.2,0.7,0.5c0.1,0.8,0.5,1.6,1.1,2.1
	c0.3,0.2,0.6,0.4,0.9,0.4c0.3,0,0.6,0,0.9-0.2c0.5-0.3,1-0.9,1.3-1.9c0-0.2,0.2-0.3,0.3-0.4c0.3-0.2,0.7-0.1,0.8,0.2c0,0,0,0,0,0
	c0.4,0.7,0.9,1,1.5,1.1c0.4,0,0.7-0.1,1-0.2c0.4-0.2,0.7-0.4,1-0.7l0,0C64.3,34.2,64.5,33.8,64.7,33.3L64.7,33.3z"/>
<path class="st0" d="M27.8,27.6h8.9c1.9,0,3.5,1.6,3.5,3.5c0,1.4-0.8,2.6-2.1,3.2v15.2c5.3,4.3,9,9.1,9,14.9
	c0.7,2,0.1,42.6,0.1,48.5c0,0.7-0.5,1.2-1.2,1.2h0H18.2c-0.7,0-1.2-0.5-1.2-1.2l0,0V64.5c0-6,3.8-11,9.5-15.4V34.4
	c-1.8-0.7-2.7-2.8-2-4.6C25.1,28.5,26.4,27.6,27.8,27.6L27.8,27.6z M88.8,74.2c7.4,8.2,2.8,20.1-7.8,24.3V110h5.5
	c0.6,0,1.1,0.5,1.1,1c0,0,0,0,0,0v2.1c0,0.6-0.5,1-1.1,1H70.6c-0.6,0-1-0.4-1.1-1v-2.1c0-0.6,0.5-1.1,1.1-1.1h6V98.5
	C66,94.3,61.4,82.4,68.8,74.2H88.8z M85.9,78.4c4.8,5.4,0.4,14-7.1,16h-0.1c-7.5-2-11.9-10.7-7.1-16H85.9z M21.4,68.1h23.8v28.7
	H21.4V68.1z"/>
<path class="st0" d="M61.6,50.1h50.3c1,0,1.7,0.8,1.7,1.8v6.8c0,1-0.8,1.8-1.8,1.8H61.6c-1,0-1.8-0.8-1.8-1.8v-6.8
	C59.8,50.9,60.6,50.1,61.6,50.1z M106.4,47.4c0.1,0.7-0.4,1.4-1.2,1.5c-0.7,0-1.3-0.6-1.4-1.3c0,0,0,0,0,0c-0.1-1.8-0.2-2.8-0.5-3.3
	c-0.4-0.5-0.9-0.9-1.5-1.1c-1-0.5-3.8-0.6-7.1-0.6c-7.8-0.2-17.9-0.4-18.2-7.4c-0.2-4,3.1-6,6.6-8c2.7-1.6,5.5-3.2,5.9-5.6
	c0.1-0.8-0.1-1.6-0.7-2.2c-1-1-2.3-1.6-3.7-1.9c-0.7-0.2-1.1-1-0.9-1.7c0.1-0.7,0.8-1.2,1.4-1c0,0,0,0,0.1,0
	c1.8,0.4,3.5,1.3,4.8,2.7c1.2,1.3,1.7,3,1.4,4.8c-0.6,3.8-3.9,5.7-7.2,7.6c-2.7,1.6-5.4,3.1-5.3,5.3c0.2,4.4,9,4.6,15.8,4.8
	c3.5,0.1,6.5,0.1,8,0.9c1.3,0.6,2.1,1.1,2.7,2.2C106,43.9,106.2,45.2,106.4,47.4L106.4,47.4z M113,46.1c0.1,0.6-0.3,1.1-0.9,1.2
	c-0.6,0.1-1.1-0.3-1.2-0.9c0-0.1,0-0.2,0-0.3c0-8-2.3-8.3-6.8-9c-0.7-0.1-1.5-0.2-2.4-0.4c-2-0.3-3.9-0.8-5.8-1.7
	c-2-0.9-3.3-2.9-3.4-5c0-1.8,0.7-3.5,2-4.8c1.2-1.2,2.5-2.3,4-3.2c0.5-0.3,1-0.1,1.3,0.3c0,0.1,0.1,0.1,0.1,0.2
	c0.3,0.6,0.1,1.3-0.4,1.6C98.3,25,97.1,25.9,96,27c-0.8,0.7-1.3,1.8-1.3,2.9c0.1,1.4,0.9,2.3,2.2,3c1.7,0.8,3.4,1.3,5.2,1.5
	c0.8,0.1,1.6,0.3,2.3,0.4C110.1,35.6,113,36,113,46.1z M111.2,52.1c0.5,0,0.8,0.3,0.8,0.8c0,0,0,0,0,0
	C111.8,56.2,109,52.1,111.2,52.1z M109.5,54.6c0.3,0,0.5,0.2,0.5,0.5c0,0,0,0,0,0C109.8,57.2,108,54.6,109.5,54.6z M111.1,57.2
	c0.3,0,0.5,0.2,0.5,0.5c0,0,0,0,0,0C111.5,59.7,109.8,57.2,111.1,57.2z M107.9,52.1c0.2,0,0.3,0.1,0.3,0.3c0,0,0,0,0,0
	C108.1,53.7,107,52.1,107.9,52.1z M73.7,51.8h31.2l-0.8,1.3l1.4,0.1c-0.5,0.7-1.5,1.1-2.3,1.8c1.8-0.2,1.3,1.2,2,1.7
	c-1.1,1.5,0.9,1.5,1.3,2.2H73.7V51.8z"/>
</svg>
